<?xml version="1.0" encoding="UTF-8" standalone="no"?>
<!-- Created by diasvg.py -->
<svg width="30.000cm" height="42.000cm" viewBox="-0.000 -0.000 30.000 42.000"
 xmlns="http://www.w3.org/2000/svg"
 xmlns:xlink="http://www.w3.org/1999/xlink">
<rect x="0.000" y="23.000" width="30.000" height="19.000" fill="#90EE90" stroke="none" stroke-width="0"/>
<rect x="0.000" y="23.000" width="30.000" height="19.000" fill="none" stroke="#90EE90" stroke-width="0.001" />
<ellipse cx="1.709" cy="28.128" rx="1.356" ry="0.461" fill="#81B97B" stroke="none"  /><ellipse cx="1.709" cy="28.128" rx="1.356" ry="0.461" fill="none" stroke="#81B97B"  stroke-width="0.050" /><rect x="0.000" y="0.000" width="30.000" height="23.000" fill="#E3F9FF" stroke="none" stroke-width="0"/>
<rect x="0.000" y="0.000" width="30.000" height="23.000" fill="none" stroke="#E3F9FF" stroke-width="0.001" />
<polygon fill="#E5E5E5" stroke="none" stroke-width="0.001" points="24.500,13.000 29.000,23.000 20.000,23.000 "/>
<polygon fill="none" stroke="#BFBFBF" stroke-width="0.001"  points="24.500,13.000 29.000,23.000 20.000,23.000 "/>
<path stroke="none" fill="#800000" stroke-width="0.001" d="M 1.009,27.815 C 1.009,27.815 1.009,27.229 1.009,27.229 C 1.009,27.229 1.204,27.229 1.204,27.229 C 1.204,27.229 1.204,27.815 1.204,27.815 C 1.204,27.815 1.180,27.863 1.107,27.863 C 1.034,27.863 1.009,27.815 1.009,27.815 "/>
<path stroke="#000000" fill="none" stroke-width="0.001"  d="M 1.009,27.815 C 1.009,27.815 1.009,27.229 1.009,27.229 C 1.009,27.229 1.204,27.229 1.204,27.229 C 1.204,27.229 1.204,27.815 1.204,27.815 C 1.204,27.815 1.180,27.863 1.107,27.863 C 1.034,27.863 1.009,27.815 1.009,27.815 "/>
<path stroke="#000000" fill="none" stroke-width="0.001"  d="M 1.009,27.815 C 1.009,27.815 1.009,27.229 1.009,27.229 C 1.009,27.229 1.204,27.229 1.204,27.229 C 1.204,27.229 1.204,27.815 1.204,27.815 C 1.204,27.815 1.180,27.863 1.107,27.863 C 1.034,27.863 1.009,27.815 1.009,27.815 "/>
<polygon fill="#008000" stroke="none" stroke-width="0.001" points="0.717,26.254 0.863,26.254 0.717,26.644 0.863,26.644 0.717,27.034 0.814,27.034 0.619,27.229 1.595,27.229 1.400,27.034 1.497,27.034 1.351,26.644 1.497,26.644 1.351,26.254 1.497,26.254 1.107,25.863 "/>
<polygon fill="none" stroke="#000000" stroke-width="0.001"  points="0.717,26.254 0.863,26.254 0.717,26.644 0.863,26.644 0.717,27.034 0.814,27.034 0.619,27.229 1.595,27.229 1.400,27.034 1.497,27.034 1.351,26.644 1.497,26.644 1.351,26.254 1.497,26.254 1.107,25.863 "/>
<polygon fill="none" stroke="#00FF00" stroke-width="0.001"  points="0.717,26.254 0.863,26.254 0.717,26.644 0.863,26.644 0.717,27.034 0.814,27.034 0.619,27.229 1.595,27.229 1.400,27.034 1.497,27.034 1.351,26.644 1.497,26.644 1.351,26.254 1.497,26.254 1.107,25.863 "/>
<polygon fill="#CCCCCC" stroke="none" stroke-width="0.001" points="21.000,15.000 26.000,23.000 16.000,23.000 "/>
<polygon fill="none" stroke="#BFBFBF" stroke-width="0.001"  points="21.000,15.000 26.000,23.000 16.000,23.000 "/>
<polygon fill="#BFBFBF" stroke="none" stroke-width="0.001" points="26.500,16.000 30.000,23.000 23.000,23.000 "/>
<polygon fill="none" stroke="#A7A7A7" stroke-width="0.001"  points="26.500,16.000 30.000,23.000 23.000,23.000 "/>
<ellipse cx="6.500" cy="17.500" rx="4.500" ry="3.500" fill="#FFFFFF" stroke="none"  /><ellipse cx="6.500" cy="17.500" rx="4.500" ry="3.500" fill="none" stroke="#FFFFFF"  stroke-width="0.001" /><ellipse cx="10.500" cy="17.500" rx="4.500" ry="3.500" fill="#FFFFFF" stroke="none"  /><ellipse cx="10.500" cy="17.500" rx="4.500" ry="3.500" fill="none" stroke="#FFFFFF"  stroke-width="0.001" /><ellipse cx="8.500" cy="15.500" rx="4.500" ry="3.500" fill="#FFFFFF" stroke="none"  /><ellipse cx="8.500" cy="15.500" rx="4.500" ry="3.500" fill="none" stroke="#FFFFFF"  stroke-width="0.001" /><ellipse cx="6.500" cy="6.500" rx="4.500" ry="3.500" fill="#FFFFFF" stroke="none"  /><ellipse cx="6.500" cy="6.500" rx="4.500" ry="3.500" fill="none" stroke="#FFFFFF"  stroke-width="0.001" /><ellipse cx="10.500" cy="6.500" rx="4.500" ry="3.500" fill="#FFFFFF" stroke="none"  /><ellipse cx="10.500" cy="6.500" rx="4.500" ry="3.500" fill="none" stroke="#FFFFFF"  stroke-width="0.001" /><ellipse cx="8.500" cy="4.500" rx="4.500" ry="3.500" fill="#FFFFFF" stroke="none"  /><ellipse cx="8.500" cy="4.500" rx="4.500" ry="3.500" fill="none" stroke="#FFFFFF"  stroke-width="0.001" /><ellipse cx="20.500" cy="6.500" rx="4.500" ry="3.500" fill="#FFFFFF" stroke="none"  /><ellipse cx="20.500" cy="6.500" rx="4.500" ry="3.500" fill="none" stroke="#FFFFFF"  stroke-width="0.001" /><ellipse cx="24.500" cy="6.500" rx="4.500" ry="3.500" fill="#FFFFFF" stroke="none"  /><ellipse cx="24.500" cy="6.500" rx="4.500" ry="3.500" fill="none" stroke="#FFFFFF"  stroke-width="0.001" /><ellipse cx="22.500" cy="4.500" rx="4.500" ry="3.500" fill="#FFFFFF" stroke="none"  /><ellipse cx="22.500" cy="4.500" rx="4.500" ry="3.500" fill="none" stroke="#FFFFFF"  stroke-width="0.001" /><polygon fill="#FFFFFF" stroke="none" stroke-width="0.001" points="20.181,16.301 21.003,14.988 21.752,16.193 21.541,16.623 21.248,16.275 21.009,16.752 20.709,16.377 20.307,16.732 "/>
<polygon fill="none" stroke="#FFFFFF" stroke-width="0.001"  points="20.181,16.301 21.003,14.988 21.752,16.193 21.541,16.623 21.248,16.275 21.009,16.752 20.709,16.377 20.307,16.732 "/>
<polygon fill="#FFFFFF" stroke="none" stroke-width="0.001" points="24.503,12.972 25.205,14.555 24.879,14.916 24.746,14.510 24.508,14.165 24.114,14.771 23.941,14.229 "/>
<polygon fill="none" stroke="#FFFFFF" stroke-width="0.001"  points="24.503,12.972 25.205,14.555 24.879,14.916 24.746,14.510 24.508,14.165 24.114,14.771 23.941,14.229 "/>
<polygon fill="#FFFFFF" stroke="none" stroke-width="0.001" points="26.496,15.992 27.053,17.099 26.646,17.289 26.487,17.429 26.326,17.251 26.085,17.246 25.740,17.525 "/>
<polygon fill="none" stroke="#FFFFFF" stroke-width="0.001"  points="26.496,15.992 27.053,17.099 26.646,17.289 26.487,17.429 26.326,17.251 26.085,17.246 25.740,17.525 "/>
<ellipse cx="27.551" cy="29.468" rx="1.878" ry="0.259" fill="#81B97B" stroke="none"  /><ellipse cx="27.551" cy="29.468" rx="1.878" ry="0.259" fill="none" stroke="#81B97B"  stroke-width="0.050" /><ellipse cx="24.089" cy="30.885" rx="5.559" ry="0.492" fill="#81B97B" stroke="none"  /><ellipse cx="24.089" cy="30.885" rx="5.559" ry="0.492" fill="none" stroke="#81B97B"  stroke-width="0.050" /><path stroke="none" fill="#800000" stroke-width="0.001" d="M 1.753,27.600 C 1.753,27.600 1.753,27.014 1.753,27.014 C 1.753,27.014 1.948,27.014 1.948,27.014 C 1.948,27.014 1.948,27.600 1.948,27.600 C 1.948,27.600 1.924,27.648 1.850,27.648 C 1.777,27.648 1.753,27.600 1.753,27.600 "/>
<path stroke="#000000" fill="none" stroke-width="0.001"  d="M 1.753,27.600 C 1.753,27.600 1.753,27.014 1.753,27.014 C 1.753,27.014 1.948,27.014 1.948,27.014 C 1.948,27.014 1.948,27.600 1.948,27.600 C 1.948,27.600 1.924,27.648 1.850,27.648 C 1.777,27.648 1.753,27.600 1.753,27.600 "/>
<path stroke="#000000" fill="none" stroke-width="0.001"  d="M 1.753,27.600 C 1.753,27.600 1.753,27.014 1.753,27.014 C 1.753,27.014 1.948,27.014 1.948,27.014 C 1.948,27.014 1.948,27.600 1.948,27.600 C 1.948,27.600 1.924,27.648 1.850,27.648 C 1.777,27.648 1.753,27.600 1.753,27.600 "/>
<polygon fill="#008000" stroke="none" stroke-width="0.001" points="1.460,26.039 1.607,26.039 1.460,26.429 1.607,26.429 1.460,26.819 1.558,26.819 1.363,27.014 2.338,27.014 2.143,26.819 2.241,26.819 2.094,26.429 2.241,26.429 2.094,26.039 2.241,26.039 1.850,25.648 "/>
<polygon fill="none" stroke="#000000" stroke-width="0.001"  points="1.460,26.039 1.607,26.039 1.460,26.429 1.607,26.429 1.460,26.819 1.558,26.819 1.363,27.014 2.338,27.014 2.143,26.819 2.241,26.819 2.094,26.429 2.241,26.429 2.094,26.039 2.241,26.039 1.850,25.648 "/>
<polygon fill="none" stroke="#00FF00" stroke-width="0.001"  points="1.460,26.039 1.607,26.039 1.460,26.429 1.607,26.429 1.460,26.819 1.558,26.819 1.363,27.014 2.338,27.014 2.143,26.819 2.241,26.819 2.094,26.429 2.241,26.429 2.094,26.039 2.241,26.039 1.850,25.648 "/>
<path stroke="none" fill="#800000" stroke-width="0.001" d="M 1.550,27.727 C 1.550,27.727 1.550,27.141 1.550,27.141 C 1.550,27.141 1.745,27.141 1.745,27.141 C 1.745,27.141 1.745,27.727 1.745,27.727 C 1.745,27.727 1.720,27.776 1.647,27.776 C 1.574,27.776 1.550,27.727 1.550,27.727 "/>
<path stroke="#000000" fill="none" stroke-width="0.001"  d="M 1.550,27.727 C 1.550,27.727 1.550,27.141 1.550,27.141 C 1.550,27.141 1.745,27.141 1.745,27.141 C 1.745,27.141 1.745,27.727 1.745,27.727 C 1.745,27.727 1.720,27.776 1.647,27.776 C 1.574,27.776 1.550,27.727 1.550,27.727 "/>
<path stroke="#000000" fill="none" stroke-width="0.001"  d="M 1.550,27.727 C 1.550,27.727 1.550,27.141 1.550,27.141 C 1.550,27.141 1.745,27.141 1.745,27.141 C 1.745,27.141 1.745,27.727 1.745,27.727 C 1.745,27.727 1.720,27.776 1.647,27.776 C 1.574,27.776 1.550,27.727 1.550,27.727 "/>
<polygon fill="#008000" stroke="none" stroke-width="0.001" points="1.257,26.166 1.403,26.166 1.257,26.556 1.403,26.556 1.257,26.946 1.355,26.946 1.159,27.141 2.135,27.141 1.940,26.946 2.037,26.946 1.891,26.556 2.037,26.556 1.891,26.166 2.037,26.166 1.647,25.776 "/>
<polygon fill="none" stroke="#000000" stroke-width="0.001"  points="1.257,26.166 1.403,26.166 1.257,26.556 1.403,26.556 1.257,26.946 1.355,26.946 1.159,27.141 2.135,27.141 1.940,26.946 2.037,26.946 1.891,26.556 2.037,26.556 1.891,26.166 2.037,26.166 1.647,25.776 "/>
<polygon fill="none" stroke="#00FF00" stroke-width="0.001"  points="1.257,26.166 1.403,26.166 1.257,26.556 1.403,26.556 1.257,26.946 1.355,26.946 1.159,27.141 2.135,27.141 1.940,26.946 2.037,26.946 1.891,26.556 2.037,26.556 1.891,26.166 2.037,26.166 1.647,25.776 "/>
<path stroke="none" fill="#800000" stroke-width="0.001" d="M 0.579,28.330 C 0.579,28.330 0.579,27.745 0.579,27.745 C 0.579,27.745 0.774,27.745 0.774,27.745 C 0.774,27.745 0.774,28.330 0.774,28.330 C 0.774,28.330 0.750,28.379 0.677,28.379 C 0.603,28.379 0.579,28.330 0.579,28.330 "/>
<path stroke="#000000" fill="none" stroke-width="0.001"  d="M 0.579,28.330 C 0.579,28.330 0.579,27.745 0.579,27.745 C 0.579,27.745 0.774,27.745 0.774,27.745 C 0.774,27.745 0.774,28.330 0.774,28.330 C 0.774,28.330 0.750,28.379 0.677,28.379 C 0.603,28.379 0.579,28.330 0.579,28.330 "/>
<path stroke="#000000" fill="none" stroke-width="0.001"  d="M 0.579,28.330 C 0.579,28.330 0.579,27.745 0.579,27.745 C 0.579,27.745 0.774,27.745 0.774,27.745 C 0.774,27.745 0.774,28.330 0.774,28.330 C 0.774,28.330 0.750,28.379 0.677,28.379 C 0.603,28.379 0.579,28.330 0.579,28.330 "/>
<polygon fill="#008000" stroke="none" stroke-width="0.001" points="0.286,26.769 0.433,26.769 0.286,27.159 0.433,27.159 0.286,27.550 0.384,27.550 0.189,27.745 1.164,27.745 0.969,27.550 1.067,27.550 0.921,27.159 1.067,27.159 0.921,26.769 1.067,26.769 0.677,26.379 "/>
<polygon fill="none" stroke="#000000" stroke-width="0.001"  points="0.286,26.769 0.433,26.769 0.286,27.159 0.433,27.159 0.286,27.550 0.384,27.550 0.189,27.745 1.164,27.745 0.969,27.550 1.067,27.550 0.921,27.159 1.067,27.159 0.921,26.769 1.067,26.769 0.677,26.379 "/>
<polygon fill="none" stroke="#00FF00" stroke-width="0.001"  points="0.286,26.769 0.433,26.769 0.286,27.159 0.433,27.159 0.286,27.550 0.384,27.550 0.189,27.745 1.164,27.745 0.969,27.550 1.067,27.550 0.921,27.159 1.067,27.159 0.921,26.769 1.067,26.769 0.677,26.379 "/>
<path stroke="none" fill="#800000" stroke-width="0.001" d="M 1.207,28.432 C 1.207,28.432 1.207,27.847 1.207,27.847 C 1.207,27.847 1.402,27.847 1.402,27.847 C 1.402,27.847 1.402,28.432 1.402,28.432 C 1.402,28.432 1.378,28.481 1.304,28.481 C 1.231,28.481 1.207,28.432 1.207,28.432 "/>
<path stroke="#000000" fill="none" stroke-width="0.001"  d="M 1.207,28.432 C 1.207,28.432 1.207,27.847 1.207,27.847 C 1.207,27.847 1.402,27.847 1.402,27.847 C 1.402,27.847 1.402,28.432 1.402,28.432 C 1.402,28.432 1.378,28.481 1.304,28.481 C 1.231,28.481 1.207,28.432 1.207,28.432 "/>
<path stroke="#000000" fill="none" stroke-width="0.001"  d="M 1.207,28.432 C 1.207,28.432 1.207,27.847 1.207,27.847 C 1.207,27.847 1.402,27.847 1.402,27.847 C 1.402,27.847 1.402,28.432 1.402,28.432 C 1.402,28.432 1.378,28.481 1.304,28.481 C 1.231,28.481 1.207,28.432 1.207,28.432 "/>
<polygon fill="#008000" stroke="none" stroke-width="0.001" points="0.914,26.871 1.060,26.871 0.914,27.262 1.060,27.262 0.914,27.652 1.012,27.652 0.817,27.847 1.792,27.847 1.597,27.652 1.695,27.652 1.548,27.262 1.695,27.262 1.548,26.871 1.695,26.871 1.304,26.481 "/>
<polygon fill="none" stroke="#000000" stroke-width="0.001"  points="0.914,26.871 1.060,26.871 0.914,27.262 1.060,27.262 0.914,27.652 1.012,27.652 0.817,27.847 1.792,27.847 1.597,27.652 1.695,27.652 1.548,27.262 1.695,27.262 1.548,26.871 1.695,26.871 1.304,26.481 "/>
<polygon fill="none" stroke="#00FF00" stroke-width="0.001"  points="0.914,26.871 1.060,26.871 0.914,27.262 1.060,27.262 0.914,27.652 1.012,27.652 0.817,27.847 1.792,27.847 1.597,27.652 1.695,27.652 1.548,27.262 1.695,27.262 1.548,26.871 1.695,26.871 1.304,26.481 "/>
<path stroke="none" fill="#800000" stroke-width="0.001" d="M 2.389,27.896 C 2.389,27.896 2.389,27.310 2.389,27.310 C 2.389,27.310 2.585,27.310 2.585,27.310 C 2.585,27.310 2.585,27.896 2.585,27.896 C 2.585,27.896 2.560,27.945 2.487,27.945 C 2.414,27.945 2.389,27.896 2.389,27.896 "/>
<path stroke="#000000" fill="none" stroke-width="0.001"  d="M 2.389,27.896 C 2.389,27.896 2.389,27.310 2.389,27.310 C 2.389,27.310 2.585,27.310 2.585,27.310 C 2.585,27.310 2.585,27.896 2.585,27.896 C 2.585,27.896 2.560,27.945 2.487,27.945 C 2.414,27.945 2.389,27.896 2.389,27.896 "/>
<path stroke="#000000" fill="none" stroke-width="0.001"  d="M 2.389,27.896 C 2.389,27.896 2.389,27.310 2.389,27.310 C 2.389,27.310 2.585,27.310 2.585,27.310 C 2.585,27.310 2.585,27.896 2.585,27.896 C 2.585,27.896 2.560,27.945 2.487,27.945 C 2.414,27.945 2.389,27.896 2.389,27.896 "/>
<polygon fill="#008000" stroke="none" stroke-width="0.001" points="2.097,26.335 2.243,26.335 2.097,26.725 2.243,26.725 2.097,27.115 2.194,27.115 1.999,27.310 2.975,27.310 2.780,27.115 2.877,27.115 2.731,26.725 2.877,26.725 2.731,26.335 2.877,26.335 2.487,25.945 "/>
<polygon fill="none" stroke="#000000" stroke-width="0.001"  points="2.097,26.335 2.243,26.335 2.097,26.725 2.243,26.725 2.097,27.115 2.194,27.115 1.999,27.310 2.975,27.310 2.780,27.115 2.877,27.115 2.731,26.725 2.877,26.725 2.731,26.335 2.877,26.335 2.487,25.945 "/>
<polygon fill="none" stroke="#00FF00" stroke-width="0.001"  points="2.097,26.335 2.243,26.335 2.097,26.725 2.243,26.725 2.097,27.115 2.194,27.115 1.999,27.310 2.975,27.310 2.780,27.115 2.877,27.115 2.731,26.725 2.877,26.725 2.731,26.335 2.877,26.335 2.487,25.945 "/>
<path stroke="none" fill="#800000" stroke-width="0.001" d="M 2.075,28.177 C 2.075,28.177 2.075,27.592 2.075,27.592 C 2.075,27.592 2.270,27.592 2.270,27.592 C 2.270,27.592 2.270,28.177 2.270,28.177 C 2.270,28.177 2.246,28.226 2.172,28.226 C 2.099,28.226 2.075,28.177 2.075,28.177 "/>
<path stroke="#000000" fill="none" stroke-width="0.001"  d="M 2.075,28.177 C 2.075,28.177 2.075,27.592 2.075,27.592 C 2.075,27.592 2.270,27.592 2.270,27.592 C 2.270,27.592 2.270,28.177 2.270,28.177 C 2.270,28.177 2.246,28.226 2.172,28.226 C 2.099,28.226 2.075,28.177 2.075,28.177 "/>
<path stroke="#000000" fill="none" stroke-width="0.001"  d="M 2.075,28.177 C 2.075,28.177 2.075,27.592 2.075,27.592 C 2.075,27.592 2.270,27.592 2.270,27.592 C 2.270,27.592 2.270,28.177 2.270,28.177 C 2.270,28.177 2.246,28.226 2.172,28.226 C 2.099,28.226 2.075,28.177 2.075,28.177 "/>
<polygon fill="#008000" stroke="none" stroke-width="0.001" points="1.782,26.616 1.929,26.616 1.782,27.007 1.929,27.007 1.782,27.397 1.880,27.397 1.685,27.592 2.660,27.592 2.465,27.397 2.563,27.397 2.416,27.007 2.563,27.007 2.416,26.616 2.563,26.616 2.172,26.226 "/>
<polygon fill="none" stroke="#000000" stroke-width="0.001"  points="1.782,26.616 1.929,26.616 1.782,27.007 1.929,27.007 1.782,27.397 1.880,27.397 1.685,27.592 2.660,27.592 2.465,27.397 2.563,27.397 2.416,27.007 2.563,27.007 2.416,26.616 2.563,26.616 2.172,26.226 "/>
<polygon fill="none" stroke="#00FF00" stroke-width="0.001"  points="1.782,26.616 1.929,26.616 1.782,27.007 1.929,27.007 1.782,27.397 1.880,27.397 1.685,27.592 2.660,27.592 2.465,27.397 2.563,27.397 2.416,27.007 2.563,27.007 2.416,26.616 2.563,26.616 2.172,26.226 "/>
<path stroke="none" fill="#800000" stroke-width="0.001" d="M 1.764,28.264 C 1.764,28.264 1.764,27.679 1.764,27.679 C 1.764,27.679 1.959,27.679 1.959,27.679 C 1.959,27.679 1.959,28.264 1.959,28.264 C 1.959,28.264 1.935,28.313 1.861,28.313 C 1.788,28.313 1.764,28.264 1.764,28.264 "/>
<path stroke="#000000" fill="none" stroke-width="0.001"  d="M 1.764,28.264 C 1.764,28.264 1.764,27.679 1.764,27.679 C 1.764,27.679 1.959,27.679 1.959,27.679 C 1.959,27.679 1.959,28.264 1.959,28.264 C 1.959,28.264 1.935,28.313 1.861,28.313 C 1.788,28.313 1.764,28.264 1.764,28.264 "/>
<path stroke="#000000" fill="none" stroke-width="0.001"  d="M 1.764,28.264 C 1.764,28.264 1.764,27.679 1.764,27.679 C 1.764,27.679 1.959,27.679 1.959,27.679 C 1.959,27.679 1.959,28.264 1.959,28.264 C 1.959,28.264 1.935,28.313 1.861,28.313 C 1.788,28.313 1.764,28.264 1.764,28.264 "/>
<polygon fill="#008000" stroke="none" stroke-width="0.001" points="1.471,26.703 1.618,26.703 1.471,27.093 1.618,27.093 1.471,27.484 1.569,27.484 1.374,27.679 2.349,27.679 2.154,27.484 2.252,27.484 2.105,27.093 2.252,27.093 2.105,26.703 2.252,26.703 1.861,26.313 "/>
<polygon fill="none" stroke="#000000" stroke-width="0.001"  points="1.471,26.703 1.618,26.703 1.471,27.093 1.618,27.093 1.471,27.484 1.569,27.484 1.374,27.679 2.349,27.679 2.154,27.484 2.252,27.484 2.105,27.093 2.252,27.093 2.105,26.703 2.252,26.703 1.861,26.313 "/>
<polygon fill="none" stroke="#00FF00" stroke-width="0.001"  points="1.471,26.703 1.618,26.703 1.471,27.093 1.618,27.093 1.471,27.484 1.569,27.484 1.374,27.679 2.349,27.679 2.154,27.484 2.252,27.484 2.105,27.093 2.252,27.093 2.105,26.703 2.252,26.703 1.861,26.313 "/>
<ellipse cx="23.775" cy="32.970" rx="2.883" ry="0.353" fill="#81B97B" stroke="none"  /><ellipse cx="23.775" cy="32.970" rx="2.883" ry="0.353" fill="none" stroke="#81B97B"  stroke-width="0.050" /><polygon fill="#ADD8E6" stroke="none" stroke-width="0.100" points="2.082,31.986 2.902,31.986 3.502,32.586 3.502,33.451 2.082,33.451 "/>
<polygon fill="none" stroke="#000000" stroke-width="0.100"  points="2.082,31.986 2.902,31.986 3.502,32.586 3.502,33.451 2.082,33.451 "/>
<polyline fill="none" stroke="#000000" stroke-width="0.050"  points="2.902,31.986 2.902,32.586 3.502,32.586 "/>
<text x="2.432" y="33.124"  fill="#000000" text-anchor="start" font-size="0.56" font-family="sans" font-style="normal" font-weight="400">
TS</text>
<path stroke="#385D8A" fill="none" stroke-width="0.100"  d ="M 7.412,32.410 A 2.466,2.466 0 0,0 3.182,31.936 "/>
<polygon fill="#385D8A" stroke="none" stroke-width="0.100" points="7.538,32.756 7.184,32.324 7.455,32.391 7.672,32.213 "/>
<polygon fill="none" stroke="#385D8A" stroke-width="0.100"  points="7.538,32.756 7.184,32.324 7.455,32.391 7.672,32.213 "/>
<path stroke="#385D8A" fill="none" stroke-width="0.100"  d ="M 22.987,25.819 A 14.874,14.874 0 0,0 17.999,26.021 "/>
<polygon fill="#385D8A" stroke="none" stroke-width="0.100" points="23.358,25.871 22.824,26.037 22.988,25.811 22.904,25.544 "/>
<polygon fill="none" stroke="#385D8A" stroke-width="0.100"  points="23.358,25.871 22.824,26.037 22.988,25.811 22.904,25.544 "/>
<path stroke="#385D8A" fill="none" stroke-width="0.100"  d ="M 16.224,33.080 A 9.795,9.795 0 0,0 24.687,27.784 "/>
<polygon fill="#385D8A" stroke="none" stroke-width="0.100" points="15.849,33.083 16.355,32.845 16.224,33.092 16.343,33.345 "/>
<polygon fill="none" stroke="#385D8A" stroke-width="0.100"  points="15.849,33.083 16.355,32.845 16.224,33.092 16.343,33.345 "/>
<polygon fill="#FFFFFF" stroke="none" stroke-width="0.100" points="19.769,35.223 21.139,35.223 21.739,35.823 21.739,36.687 19.769,36.687 "/>
<polygon fill="none" stroke="#385D8A" stroke-width="0.100"  points="19.769,35.223 21.139,35.223 21.739,35.823 21.739,36.687 19.769,36.687 "/>
<polyline fill="none" stroke="#385D8A" stroke-width="0.050"  points="21.139,35.223 21.139,35.823 21.739,35.823 "/>
<text x="20.119" y="36.361"  fill="#385D8A" text-anchor="start" font-size="0.56" font-family="sans" font-style="normal" font-weight="400">
JSON</text>
<path stroke="#385D8A" fill="none" stroke-width="0.100"  d ="M 12.002,25.861 A 9.445,9.445 0 0,0 7.015,26.237 "/>
<polygon fill="#385D8A" stroke="none" stroke-width="0.100" points="6.664,26.370 7.030,25.947 7.010,26.225 7.222,26.408 "/>
<polygon fill="none" stroke="#385D8A" stroke-width="0.100"  points="6.664,26.370 7.030,25.947 7.010,26.225 7.222,26.408 "/>
<path stroke="#385D8A" fill="none" stroke-width="0.100"  d ="M 4.650,27.190 A 4.234,4.234 0 0,0 2.518,31.939 "/>
<polygon fill="#385D8A" stroke="none" stroke-width="0.100" points="4.986,27.029 4.611,27.444 4.637,27.166 4.430,26.978 "/>
<polygon fill="none" stroke="#385D8A" stroke-width="0.100"  points="4.986,27.029 4.611,27.444 4.637,27.166 4.430,26.978 "/>
<path stroke="#385D8A" fill="none" stroke-width="0.100" stroke-dasharray="0.10,0.10" d ="M 6.933,35.965 A 7.691,7.691 0 0,0 13.442,39.093 "/>
<polygon fill="#385D8A" stroke="none" stroke-width="0.100" points="6.717,35.659 7.198,35.944 6.920,35.974 6.777,36.214 "/>
<polygon fill="none" stroke="#385D8A" stroke-width="0.100"  points="6.717,35.659 7.198,35.944 6.920,35.974 6.777,36.214 "/>
<path stroke="#385D8A" fill="none" stroke-width="0.100"  d ="M 2.542,33.977 A 2.036,2.036 0 0,0 5.937,35.226 "/>
<polygon fill="#385D8A" stroke="none" stroke-width="0.100" points="2.526,33.611 2.720,34.136 2.485,33.984 2.223,34.081 "/>
<polygon fill="none" stroke="#385D8A" stroke-width="0.100"  points="2.526,33.611 2.720,34.136 2.485,33.984 2.223,34.081 "/>
<rect x="12.000" y="25.000" width="6.000" height="4.000" fill="none" stroke="#000000" stroke-width="0.001" />
<polygon fill="#ADD8E6" stroke="none" stroke-width="0.100" points="15.233,25.571 16.676,25.571 17.276,26.171 17.276,27.035 15.233,27.035 "/>
<polygon fill="none" stroke="#000000" stroke-width="0.100"  points="15.233,25.571 16.676,25.571 17.276,26.171 17.276,27.035 15.233,27.035 "/>
<polyline fill="none" stroke="#000000" stroke-width="0.050"  points="16.676,25.571 16.676,26.171 17.276,26.171 "/>
<text x="15.583" y="26.708"  fill="#000000" text-anchor="start" font-size="0.56" font-family="sans" font-style="normal" font-weight="400">
HTML</text>
<polygon fill="#ADD8E6" stroke="none" stroke-width="0.100" points="13.900,26.250 15.033,26.250 15.633,26.850 15.633,27.714 13.900,27.714 "/>
<polygon fill="none" stroke="#000000" stroke-width="0.100"  points="13.900,26.250 15.033,26.250 15.633,26.850 15.633,27.714 13.900,27.714 "/>
<polyline fill="none" stroke="#000000" stroke-width="0.050"  points="15.033,26.250 15.033,26.850 15.633,26.850 "/>
<text x="14.250" y="27.388"  fill="#000000" text-anchor="start" font-size="0.56" font-family="sans" font-style="normal" font-weight="400">
CSS</text>
<polygon fill="#ADD8E6" stroke="none" stroke-width="0.100" points="12.833,26.921 13.598,26.921 14.198,27.521 14.198,28.385 12.833,28.385 "/>
<polygon fill="none" stroke="#000000" stroke-width="0.100"  points="12.833,26.921 13.598,26.921 14.198,27.521 14.198,28.385 12.833,28.385 "/>
<polyline fill="none" stroke="#000000" stroke-width="0.050"  points="13.598,26.921 13.598,27.521 14.198,27.521 "/>
<text x="13.183" y="28.059"  fill="#000000" text-anchor="start" font-size="0.56" font-family="sans" font-style="normal" font-weight="400">
JS</text>
<path stroke="#385D8A" fill="none" stroke-width="0.100" stroke-dasharray="0.10,0.10" d ="M 15.204,32.226 A 3.136,3.136 0 0,0 14.628,28.319 "/>
<polygon fill="#385D8A" stroke="none" stroke-width="0.100" points="14.342,28.083 14.896,28.153 14.653,28.292 14.618,28.569 "/>
<polygon fill="none" stroke="#385D8A" stroke-width="0.100"  points="14.342,28.083 14.896,28.153 14.653,28.292 14.618,28.569 "/>
<path stroke="#385D8A" fill="none" stroke-width="0.100"  d ="M 12.318,27.856 A 6.383,6.383 0 0,0 7.602,33.950 "/>
<polygon fill="#385D8A" stroke="none" stroke-width="0.100" points="12.682,27.768 12.237,28.107 12.313,27.838 12.144,27.616 "/>
<polygon fill="none" stroke="#385D8A" stroke-width="0.100"  points="12.682,27.768 12.237,28.107 12.313,27.838 12.144,27.616 "/>
<path stroke="#385D8A" fill="none" stroke-width="0.100"  d ="M 5.041,17.516 A 5.001,5.001 0 0,0 4.611,25.716 "/>
<polygon fill="#385D8A" stroke="none" stroke-width="0.100" points="4.913,25.935 4.357,25.879 4.596,25.734 4.624,25.456 "/>
<polygon fill="none" stroke="#385D8A" stroke-width="0.100"  points="4.913,25.935 4.357,25.879 4.596,25.734 4.624,25.456 "/>
<polygon fill="#385D8A" stroke="none" stroke-width="0.100" points="5.365,17.330 5.027,17.775 5.028,17.496 4.806,17.327 "/>
<polygon fill="none" stroke="#385D8A" stroke-width="0.100"  points="5.365,17.330 5.027,17.775 5.028,17.496 4.806,17.327 "/>
<polygon fill="#ADD8E6" stroke="none" stroke-width="0.100" points="3.098,20.780 3.398,20.780 3.998,21.380 3.998,22.244 3.098,22.244 "/>
<polygon fill="none" stroke="#000000" stroke-width="0.100"  points="3.098,20.780 3.398,20.780 3.998,21.380 3.998,22.244 3.098,22.244 "/>
<polyline fill="none" stroke="#000000" stroke-width="0.050"  points="3.398,20.780 3.398,21.380 3.998,21.380 "/>
<polygon fill="#ADD8E6" stroke="none" stroke-width="0.100" points="2.789,20.963 3.089,20.963 3.689,21.563 3.689,22.428 2.789,22.428 "/>
<polygon fill="none" stroke="#000000" stroke-width="0.100"  points="2.789,20.963 3.089,20.963 3.689,21.563 3.689,22.428 2.789,22.428 "/>
<polyline fill="none" stroke="#000000" stroke-width="0.050"  points="3.089,20.963 3.089,21.563 3.689,21.563 "/>
<polygon fill="#ADD8E6" stroke="none" stroke-width="0.100" points="2.477,21.177 2.777,21.177 3.377,21.777 3.377,22.642 2.477,22.642 "/>
<polygon fill="none" stroke="#000000" stroke-width="0.100"  points="2.477,21.177 2.777,21.177 3.377,21.777 3.377,22.642 2.477,22.642 "/>
<polyline fill="none" stroke="#000000" stroke-width="0.050"  points="2.777,21.177 2.777,21.777 3.377,21.777 "/>
<polygon fill="#ADD8E6" stroke="none" stroke-width="0.100" points="2.168,21.371 2.468,21.371 3.068,21.971 3.068,22.836 2.168,22.836 "/>
<polygon fill="none" stroke="#000000" stroke-width="0.100"  points="2.168,21.371 2.468,21.371 3.068,21.971 3.068,22.836 2.168,22.836 "/>
<polyline fill="none" stroke="#000000" stroke-width="0.050"  points="2.468,21.371 2.468,21.971 3.068,21.971 "/>
<path stroke="#385D8A" fill="none" stroke-width="0.100"  d ="M 4.799,7.063 A 6.541,6.541 0 0,0 6.483,16.552 "/>
<polygon fill="#385D8A" stroke="none" stroke-width="0.100" points="5.033,6.772 4.888,7.312 4.784,7.053 4.514,6.980 "/>
<polygon fill="none" stroke="#385D8A" stroke-width="0.100"  points="5.033,6.772 4.888,7.312 4.784,7.053 4.514,6.980 "/>
<polygon fill="#ADD8E6" stroke="none" stroke-width="0.100" points="3.779,10.702 4.079,10.702 4.679,11.302 4.679,12.166 3.779,12.166 "/>
<polygon fill="none" stroke="#000000" stroke-width="0.100"  points="3.779,10.702 4.079,10.702 4.679,11.302 4.679,12.166 3.779,12.166 "/>
<polyline fill="none" stroke="#000000" stroke-width="0.050"  points="4.079,10.702 4.079,11.302 4.679,11.302 "/>
<polygon fill="#ADD8E6" stroke="none" stroke-width="0.100" points="3.470,10.885 3.770,10.885 4.370,11.485 4.370,12.349 3.470,12.349 "/>
<polygon fill="none" stroke="#000000" stroke-width="0.100"  points="3.470,10.885 3.770,10.885 4.370,11.485 4.370,12.349 3.470,12.349 "/>
<polyline fill="none" stroke="#000000" stroke-width="0.050"  points="3.770,10.885 3.770,11.485 4.370,11.485 "/>
<polygon fill="#ADD8E6" stroke="none" stroke-width="0.100" points="3.158,11.099 3.458,11.099 4.058,11.699 4.058,12.563 3.158,12.563 "/>
<polygon fill="none" stroke="#000000" stroke-width="0.100"  points="3.158,11.099 3.458,11.099 4.058,11.699 4.058,12.563 3.158,12.563 "/>
<polyline fill="none" stroke="#000000" stroke-width="0.050"  points="3.458,11.099 3.458,11.699 4.058,11.699 "/>
<polygon fill="#ADD8E6" stroke="none" stroke-width="0.100" points="2.849,11.293 3.149,11.293 3.749,11.893 3.749,12.757 2.849,12.757 "/>
<polygon fill="none" stroke="#000000" stroke-width="0.100"  points="2.849,11.293 3.149,11.293 3.749,11.893 3.749,12.757 2.849,12.757 "/>
<polyline fill="none" stroke="#000000" stroke-width="0.050"  points="3.149,11.293 3.149,11.893 3.749,11.893 "/>
<path stroke="#385D8A" fill="none" stroke-width="0.100"  d ="M 9.652,17.731 A 7.254,7.254 0 0,0 18.977,20.687 "/>
<polygon fill="#385D8A" stroke="none" stroke-width="0.100" points="9.472,17.403 9.917,17.741 9.638,17.739 9.468,17.962 "/>
<polygon fill="none" stroke="#385D8A" stroke-width="0.100"  points="9.472,17.403 9.917,17.741 9.638,17.739 9.468,17.962 "/>
<polygon fill="#385D8A" stroke="none" stroke-width="0.100" points="19.313,20.522 18.994,20.981 18.984,20.702 18.755,20.542 "/>
<polygon fill="none" stroke="#385D8A" stroke-width="0.100"  points="19.313,20.522 18.994,20.981 18.984,20.702 18.755,20.542 "/>
<path stroke="#385D8A" fill="none" stroke-width="0.100"  d ="M 21.098,19.707 A 34.666,34.666 0 0,0 7.664,6.920 "/>
<polygon fill="#385D8A" stroke="none" stroke-width="0.100" points="7.333,6.745 7.892,6.752 7.666,6.917 7.663,7.196 "/>
<polygon fill="none" stroke="#385D8A" stroke-width="0.100"  points="7.333,6.745 7.892,6.752 7.666,6.917 7.663,7.196 "/>
<path stroke="#385D8A" fill="none" stroke-width="0.100"  d ="M 22.065,5.192 A 13.503,13.503 0 0,0 8.142,4.286 "/>
<polygon fill="#385D8A" stroke="none" stroke-width="0.100" points="7.811,4.463 8.124,3.999 8.138,4.278 8.369,4.435 "/>
<polygon fill="none" stroke="#385D8A" stroke-width="0.100"  points="7.811,4.463 8.124,3.999 8.138,4.278 8.369,4.435 "/>
<polygon fill="#385D8A" stroke="none" stroke-width="0.100" points="22.370,5.410 21.820,5.310 22.070,5.185 22.120,4.910 "/>
<polygon fill="none" stroke="#385D8A" stroke-width="0.100"  points="22.370,5.410 21.820,5.310 22.070,5.185 22.120,4.910 "/>
<polygon fill="#FFFFFF" stroke="none" stroke-width="0.100" points="14.357,2.117 15.727,2.117 16.327,2.717 16.327,3.581 14.357,3.581 "/>
<polygon fill="none" stroke="#385D8A" stroke-width="0.100"  points="14.357,2.117 15.727,2.117 16.327,2.717 16.327,3.581 14.357,3.581 "/>
<polyline fill="none" stroke="#385D8A" stroke-width="0.050"  points="15.727,2.117 15.727,2.717 16.327,2.717 "/>
<text x="14.707" y="3.254"  fill="#385D8A" text-anchor="start" font-size="0.56" font-family="sans" font-style="normal" font-weight="400">
JSON</text>
<polygon fill="#ADD8E6" stroke="none" stroke-width="0.100" points="14.092,19.886 14.392,19.886 14.992,20.486 14.992,21.350 14.092,21.350 "/>
<polygon fill="none" stroke="#000000" stroke-width="0.100"  points="14.092,19.886 14.392,19.886 14.992,20.486 14.992,21.350 14.092,21.350 "/>
<polyline fill="none" stroke="#000000" stroke-width="0.050"  points="14.392,19.886 14.392,20.486 14.992,20.486 "/>
<polygon fill="#ADD8E6" stroke="none" stroke-width="0.100" points="13.780,20.100 14.080,20.100 14.680,20.700 14.680,21.564 13.780,21.564 "/>
<polygon fill="none" stroke="#000000" stroke-width="0.100"  points="13.780,20.100 14.080,20.100 14.680,20.700 14.680,21.564 13.780,21.564 "/>
<polyline fill="none" stroke="#000000" stroke-width="0.050"  points="14.080,20.100 14.080,20.700 14.680,20.700 "/>
<polygon fill="#ADD8E6" stroke="none" stroke-width="0.100" points="13.471,20.294 13.771,20.294 14.371,20.894 14.371,21.758 13.471,21.758 "/>
<polygon fill="none" stroke="#000000" stroke-width="0.100"  points="13.471,20.294 13.771,20.294 14.371,20.894 14.371,21.758 13.471,21.758 "/>
<polyline fill="none" stroke="#000000" stroke-width="0.050"  points="13.771,20.294 13.771,20.894 14.371,20.894 "/>
<path stroke="none" fill="#B7B89E" stroke-width="0.001" d="M 14.933,37.035 L 14.933,37.051 L 14.934,37.067 L 14.936,37.083 L 14.939,37.099 L 14.943,37.114 L 14.947,37.129 L 14.952,37.144 L 14.957,37.158 L 14.964,37.173 L 14.971,37.186 L 14.979,37.200 L 14.987,37.213 L 14.996,37.225 L 15.005,37.237 L 15.015,37.248 L 15.025,37.260 L 15.037,37.270 L 15.048,37.280 L 15.060,37.289 L 15.072,37.298 L 15.085,37.307 L 15.099,37.314 L 15.112,37.321 L 15.126,37.328 L 15.141,37.334 L 15.156,37.338 L 15.171,37.343 L 15.186,37.346 L 15.202,37.349 L 15.218,37.351 L 15.234,37.352 L 15.250,37.353 L 15.266,37.352 L 15.282,37.351 L 15.298,37.349 L 15.314,37.346 L 15.329,37.343 L 15.344,37.338 L 15.359,37.334 L 15.373,37.328 L 15.387,37.321 L 15.401,37.314 L 15.414,37.307 L 15.427,37.298 L 15.440,37.289 L 15.452,37.280 L 15.463,37.270 L 15.474,37.260 L 15.485,37.248 L 15.495,37.237 L 15.504,37.225 L 15.513,37.213 L 15.521,37.200 L 15.529,37.186 L 15.536,37.173 L 15.542,37.158 L 15.547,37.144 L 15.553,37.129 L 15.557,37.114 L 15.560,37.099 L 15.563,37.083 L 15.565,37.067 L 15.566,37.051 L 15.567,37.035 L 15.566,37.018 L 15.565,37.002 L 15.563,36.986 L 15.560,36.971 L 15.557,36.955 L 15.553,36.940 L 15.547,36.925 L 15.542,36.911 L 15.536,36.897 L 15.529,36.883 L 15.521,36.870 L 15.513,36.857 L 15.504,36.844 L 15.495,36.832 L 15.485,36.821 L 15.474,36.810 L 15.463,36.799 L 15.452,36.789 L 15.440,36.780 L 15.427,36.771 L 15.414,36.763 L 15.401,36.755 L 15.387,36.748 L 15.373,36.742 L 15.359,36.736 L 15.344,36.731 L 15.329,36.727 L 15.314,36.723 L 15.298,36.720 L 15.282,36.718 L 15.266,36.717 L 15.250,36.716 L 15.234,36.717 L 15.218,36.718 L 15.202,36.720 L 15.186,36.723 L 15.171,36.727 L 15.156,36.731 L 15.141,36.736 L 15.126,36.742 L 15.112,36.748 L 15.099,36.755 L 15.085,36.763 L 15.072,36.771 L 15.060,36.780 L 15.048,36.789 L 15.037,36.799 L 15.025,36.810 L 15.015,36.821 L 15.005,36.832 L 14.996,36.844 L 14.987,36.857 L 14.979,36.870 L 14.971,36.883 L 14.964,36.897 L 14.957,36.911 L 14.952,36.925 L 14.947,36.940 L 14.943,36.955 L 14.939,36.971 L 14.936,36.986 L 14.934,37.002 L 14.933,37.018 L 14.933,37.035 "/>
<path stroke="none" fill="#000000" stroke-width="0.001" d="M 15.250,37.367 L 15.250,37.367 L 15.241,37.367 L 15.233,37.367 L 15.224,37.366 L 15.216,37.365 L 15.208,37.364 L 15.199,37.363 L 15.191,37.362 L 15.183,37.360 L 15.176,37.359 L 15.167,37.357 L 15.160,37.355 L 15.151,37.352 L 15.143,37.350 L 15.136,37.347 L 15.129,37.344 L 15.121,37.341 L 15.113,37.338 L 15.106,37.334 L 15.099,37.331 L 15.092,37.327 L 15.085,37.323 L 15.078,37.319 L 15.071,37.315 L 15.065,37.311 L 15.058,37.306 L 15.051,37.301 L 15.045,37.296 L 15.039,37.292 L 15.033,37.286 L 15.027,37.281 L 15.021,37.276 L 15.015,37.270 L 15.010,37.264 L 15.004,37.258 L 14.999,37.252 L 14.994,37.246 L 14.989,37.240 L 14.984,37.234 L 14.980,37.227 L 14.975,37.221 L 14.970,37.214 L 14.967,37.207 L 14.963,37.200 L 14.958,37.193 L 14.954,37.186 L 14.951,37.179 L 14.948,37.172 L 14.944,37.164 L 14.941,37.156 L 14.938,37.149 L 14.936,37.141 L 14.933,37.134 L 14.931,37.126 L 14.929,37.118 L 14.927,37.110 L 14.925,37.102 L 14.923,37.093 L 14.922,37.085 L 14.921,37.077 L 14.920,37.069 L 14.919,37.060 L 14.919,37.052 L 14.919,37.043 L 14.919,37.035 L 14.947,37.035 L 14.947,37.042 L 14.947,37.050 L 14.948,37.058 L 14.949,37.066 L 14.950,37.074 L 14.950,37.081 L 14.952,37.089 L 14.953,37.096 L 14.954,37.103 L 14.957,37.111 L 14.958,37.118 L 14.960,37.125 L 14.963,37.132 L 14.965,37.139 L 14.968,37.146 L 14.970,37.153 L 14.974,37.160 L 14.977,37.167 L 14.980,37.173 L 14.984,37.180 L 14.987,37.186 L 14.991,37.192 L 14.995,37.198 L 14.999,37.205 L 15.003,37.211 L 15.007,37.216 L 15.012,37.222 L 15.016,37.228 L 15.021,37.234 L 15.026,37.239 L 15.031,37.244 L 15.035,37.249 L 15.041,37.255 L 15.046,37.260 L 15.051,37.264 L 15.057,37.269 L 15.063,37.273 L 15.069,37.278 L 15.075,37.282 L 15.081,37.286 L 15.086,37.290 L 15.093,37.295 L 15.099,37.298 L 15.106,37.302 L 15.112,37.305 L 15.119,37.309 L 15.125,37.312 L 15.132,37.315 L 15.139,37.317 L 15.146,37.320 L 15.153,37.322 L 15.160,37.325 L 15.167,37.327 L 15.174,37.329 L 15.181,37.331 L 15.189,37.332 L 15.197,37.334 L 15.204,37.335 L 15.211,37.336 L 15.219,37.337 L 15.227,37.338 L 15.234,37.338 L 15.242,37.338 L 15.250,37.338 L 15.250,37.338 L 15.250,37.367 L 15.250,37.367 L 15.250,37.367 "/>
<path stroke="none" fill="#000000" stroke-width="0.001" d="M 15.581,37.035 L 15.581,37.035 L 15.581,37.043 L 15.581,37.052 L 15.580,37.060 L 15.580,37.069 L 15.579,37.077 L 15.577,37.085 L 15.576,37.093 L 15.574,37.102 L 15.573,37.110 L 15.570,37.118 L 15.569,37.126 L 15.566,37.134 L 15.564,37.141 L 15.561,37.149 L 15.558,37.156 L 15.555,37.164 L 15.552,37.172 L 15.549,37.179 L 15.545,37.186 L 15.541,37.193 L 15.537,37.200 L 15.533,37.207 L 15.529,37.214 L 15.525,37.221 L 15.520,37.227 L 15.515,37.234 L 15.510,37.240 L 15.505,37.246 L 15.500,37.252 L 15.495,37.258 L 15.489,37.264 L 15.484,37.270 L 15.478,37.276 L 15.472,37.281 L 15.466,37.286 L 15.461,37.292 L 15.454,37.296 L 15.449,37.301 L 15.442,37.306 L 15.436,37.311 L 15.428,37.315 L 15.422,37.319 L 15.415,37.323 L 15.408,37.327 L 15.401,37.331 L 15.393,37.334 L 15.387,37.338 L 15.379,37.341 L 15.372,37.344 L 15.364,37.347 L 15.356,37.350 L 15.349,37.352 L 15.341,37.355 L 15.333,37.357 L 15.325,37.359 L 15.317,37.360 L 15.309,37.362 L 15.300,37.363 L 15.292,37.364 L 15.283,37.365 L 15.275,37.366 L 15.267,37.367 L 15.258,37.367 L 15.250,37.367 L 15.250,37.338 L 15.258,37.338 L 15.266,37.338 L 15.274,37.338 L 15.281,37.337 L 15.289,37.336 L 15.296,37.335 L 15.304,37.334 L 15.311,37.332 L 15.319,37.331 L 15.326,37.329 L 15.333,37.327 L 15.340,37.325 L 15.347,37.322 L 15.354,37.320 L 15.361,37.317 L 15.368,37.315 L 15.375,37.312 L 15.381,37.309 L 15.388,37.305 L 15.394,37.302 L 15.401,37.298 L 15.407,37.295 L 15.413,37.290 L 15.420,37.286 L 15.425,37.282 L 15.431,37.278 L 15.437,37.273 L 15.443,37.269 L 15.448,37.264 L 15.454,37.260 L 15.459,37.255 L 15.464,37.249 L 15.469,37.244 L 15.474,37.239 L 15.479,37.234 L 15.484,37.228 L 15.488,37.222 L 15.492,37.216 L 15.496,37.211 L 15.501,37.205 L 15.505,37.198 L 15.509,37.192 L 15.512,37.186 L 15.516,37.180 L 15.519,37.173 L 15.523,37.167 L 15.526,37.160 L 15.529,37.153 L 15.532,37.146 L 15.534,37.139 L 15.536,37.132 L 15.539,37.125 L 15.541,37.118 L 15.543,37.111 L 15.545,37.103 L 15.546,37.096 L 15.548,37.089 L 15.549,37.081 L 15.550,37.074 L 15.551,37.066 L 15.552,37.058 L 15.552,37.050 L 15.553,37.042 L 15.553,37.035 L 15.553,37.035 L 15.581,37.035 L 15.581,37.035 L 15.581,37.035 "/>
<path stroke="none" fill="#000000" stroke-width="0.001" d="M 15.250,36.702 L 15.250,36.702 L 15.258,36.702 L 15.267,36.703 L 15.275,36.703 L 15.283,36.704 L 15.292,36.705 L 15.300,36.706 L 15.309,36.708 L 15.317,36.709 L 15.325,36.711 L 15.333,36.713 L 15.341,36.715 L 15.349,36.717 L 15.356,36.720 L 15.364,36.723 L 15.372,36.725 L 15.379,36.728 L 15.387,36.732 L 15.393,36.735 L 15.401,36.738 L 15.408,36.742 L 15.415,36.746 L 15.422,36.750 L 15.428,36.754 L 15.436,36.759 L 15.442,36.763 L 15.449,36.768 L 15.454,36.773 L 15.461,36.778 L 15.466,36.783 L 15.472,36.789 L 15.478,36.794 L 15.484,36.800 L 15.489,36.805 L 15.495,36.811 L 15.500,36.817 L 15.505,36.824 L 15.510,36.829 L 15.515,36.836 L 15.520,36.842 L 15.525,36.849 L 15.529,36.855 L 15.533,36.862 L 15.537,36.869 L 15.541,36.876 L 15.545,36.883 L 15.549,36.891 L 15.552,36.898 L 15.555,36.905 L 15.558,36.913 L 15.561,36.921 L 15.564,36.928 L 15.566,36.936 L 15.569,36.944 L 15.570,36.951 L 15.573,36.960 L 15.574,36.968 L 15.576,36.976 L 15.577,36.984 L 15.579,36.992 L 15.580,37.000 L 15.580,37.009 L 15.581,37.018 L 15.581,37.026 L 15.581,37.035 L 15.553,37.035 L 15.553,37.027 L 15.552,37.019 L 15.552,37.011 L 15.551,37.004 L 15.550,36.996 L 15.549,36.988 L 15.548,36.981 L 15.546,36.974 L 15.545,36.966 L 15.543,36.959 L 15.541,36.951 L 15.539,36.944 L 15.536,36.937 L 15.534,36.930 L 15.532,36.923 L 15.529,36.916 L 15.526,36.910 L 15.523,36.903 L 15.519,36.896 L 15.516,36.890 L 15.512,36.883 L 15.509,36.877 L 15.505,36.871 L 15.501,36.865 L 15.496,36.859 L 15.492,36.853 L 15.488,36.847 L 15.484,36.841 L 15.479,36.836 L 15.474,36.830 L 15.469,36.825 L 15.464,36.820 L 15.459,36.815 L 15.454,36.810 L 15.448,36.805 L 15.443,36.800 L 15.437,36.796 L 15.431,36.791 L 15.425,36.787 L 15.420,36.783 L 15.413,36.779 L 15.407,36.775 L 15.401,36.771 L 15.394,36.767 L 15.388,36.764 L 15.381,36.761 L 15.375,36.758 L 15.368,36.755 L 15.361,36.752 L 15.354,36.750 L 15.347,36.747 L 15.340,36.745 L 15.333,36.743 L 15.326,36.741 L 15.319,36.738 L 15.311,36.737 L 15.304,36.736 L 15.296,36.734 L 15.289,36.733 L 15.281,36.732 L 15.274,36.732 L 15.266,36.732 L 15.258,36.731 L 15.250,36.731 L 15.250,36.731 L 15.250,36.702 L 15.250,36.702 L 15.250,36.702 "/>
<path stroke="none" fill="#000000" stroke-width="0.001" d="M 14.919,37.035 L 14.919,37.035 L 14.919,37.026 L 14.919,37.018 L 14.919,37.009 L 14.920,37.000 L 14.921,36.992 L 14.922,36.984 L 14.923,36.976 L 14.925,36.968 L 14.927,36.960 L 14.929,36.951 L 14.931,36.944 L 14.933,36.936 L 14.936,36.928 L 14.938,36.921 L 14.941,36.913 L 14.944,36.905 L 14.948,36.898 L 14.951,36.891 L 14.954,36.883 L 14.958,36.876 L 14.963,36.869 L 14.967,36.862 L 14.970,36.855 L 14.975,36.849 L 14.980,36.842 L 14.984,36.836 L 14.989,36.829 L 14.994,36.824 L 14.999,36.817 L 15.004,36.811 L 15.010,36.805 L 15.015,36.800 L 15.021,36.794 L 15.027,36.789 L 15.033,36.783 L 15.039,36.778 L 15.045,36.773 L 15.051,36.768 L 15.058,36.763 L 15.065,36.759 L 15.071,36.754 L 15.078,36.750 L 15.085,36.746 L 15.092,36.742 L 15.099,36.738 L 15.106,36.735 L 15.113,36.732 L 15.121,36.728 L 15.129,36.725 L 15.136,36.723 L 15.143,36.720 L 15.151,36.717 L 15.160,36.715 L 15.167,36.713 L 15.176,36.711 L 15.183,36.709 L 15.191,36.708 L 15.199,36.706 L 15.208,36.705 L 15.216,36.704 L 15.224,36.703 L 15.233,36.703 L 15.241,36.702 L 15.250,36.702 L 15.250,36.731 L 15.242,36.731 L 15.234,36.732 L 15.227,36.732 L 15.219,36.732 L 15.211,36.733 L 15.204,36.734 L 15.197,36.736 L 15.189,36.737 L 15.181,36.738 L 15.174,36.741 L 15.167,36.743 L 15.160,36.745 L 15.153,36.747 L 15.146,36.750 L 15.139,36.752 L 15.132,36.755 L 15.125,36.758 L 15.119,36.761 L 15.112,36.764 L 15.106,36.767 L 15.099,36.771 L 15.093,36.775 L 15.086,36.779 L 15.081,36.783 L 15.075,36.787 L 15.069,36.791 L 15.063,36.796 L 15.057,36.800 L 15.051,36.805 L 15.046,36.810 L 15.041,36.815 L 15.035,36.820 L 15.031,36.825 L 15.026,36.830 L 15.021,36.836 L 15.016,36.842 L 15.012,36.847 L 15.007,36.853 L 15.003,36.859 L 14.999,36.865 L 14.995,36.871 L 14.991,36.877 L 14.987,36.883 L 14.984,36.890 L 14.980,36.896 L 14.977,36.903 L 14.974,36.910 L 14.970,36.916 L 14.968,36.923 L 14.965,36.930 L 14.963,36.937 L 14.960,36.944 L 14.958,36.951 L 14.957,36.959 L 14.954,36.966 L 14.953,36.974 L 14.952,36.981 L 14.950,36.988 L 14.950,36.996 L 14.949,37.004 L 14.948,37.011 L 14.947,37.019 L 14.947,37.027 L 14.947,37.035 L 14.947,37.035 L 14.919,37.035 L 14.919,37.035 L 14.919,37.035 "/>
<path stroke="none" fill="#C9C9B8" stroke-width="0.001" d="M 14.297,37.870 L 13.530,37.870 L 13.530,38.045 L 14.297,38.045 L 14.297,37.870 "/>
<path stroke="none" fill="#000000" stroke-width="0.001" d="M 13.515,37.870 L 13.530,37.855 L 14.297,37.855 L 14.297,37.884 L 13.530,37.884 L 13.515,37.870 L 13.515,37.870 L 13.515,37.855 L 13.530,37.855 L 13.515,37.870 "/>
<path stroke="none" fill="#000000" stroke-width="0.001" d="M 13.530,38.059 L 13.515,38.045 L 13.515,37.870 L 13.544,37.870 L 13.544,38.045 L 13.530,38.059 L 13.530,38.059 L 13.515,38.059 L 13.515,38.045 L 13.530,38.059 "/>
<path stroke="none" fill="#000000" stroke-width="0.001" d="M 14.312,38.045 L 14.297,38.059 L 13.530,38.059 L 13.530,38.030 L 14.297,38.030 L 14.312,38.045 L 14.312,38.045 L 14.312,38.059 L 14.297,38.059 L 14.312,38.045 "/>
<path stroke="none" fill="#000000" stroke-width="0.001" d="M 14.297,37.855 L 14.312,37.870 L 14.312,38.045 L 14.282,38.045 L 14.282,37.870 L 14.297,37.855 L 14.297,37.855 L 14.312,37.855 L 14.312,37.870 L 14.297,37.855 "/>
<path stroke="none" fill="#C9C9B8" stroke-width="0.001" d="M 13.685,37.422 L 13.685,37.870 L 14.282,37.870 L 14.282,37.271 L 13.755,37.339 L 13.754,37.340 L 13.752,37.340 L 13.748,37.340 L 13.744,37.342 L 13.741,37.343 L 13.738,37.343 L 13.736,37.344 L 13.733,37.346 L 13.730,37.347 L 13.726,37.348 L 13.723,37.350 L 13.720,37.352 L 13.716,37.355 L 13.713,37.357 L 13.710,37.360 L 13.707,37.363 L 13.703,37.366 L 13.700,37.369 L 13.698,37.373 L 13.696,37.377 L 13.693,37.382 L 13.691,37.386 L 13.689,37.391 L 13.687,37.397 L 13.687,37.402 L 13.686,37.409 L 13.685,37.415 L 13.685,37.422 "/>
<path stroke="none" fill="#000000" stroke-width="0.001" d="M 13.685,37.884 L 13.671,37.870 L 13.671,37.422 L 13.699,37.422 L 13.699,37.870 L 13.685,37.884 L 13.685,37.884 L 13.671,37.884 L 13.671,37.870 L 13.685,37.884 "/>
<path stroke="none" fill="#000000" stroke-width="0.001" d="M 14.296,37.870 L 14.282,37.884 L 13.685,37.884 L 13.685,37.855 L 14.282,37.855 L 14.296,37.870 L 14.296,37.870 L 14.296,37.884 L 14.282,37.884 L 14.296,37.870 "/>
<path stroke="none" fill="#000000" stroke-width="0.001" d="M 14.281,37.256 L 14.296,37.271 L 14.296,37.870 L 14.268,37.870 L 14.268,37.271 L 14.281,37.256 L 14.281,37.256 L 14.296,37.254 L 14.296,37.271 L 14.281,37.256 "/>
<path stroke="none" fill="#000000" stroke-width="0.001" d="M 13.757,37.353 L 13.753,37.325 L 14.281,37.256 L 14.284,37.285 L 13.757,37.353 L 13.757,37.353 L 13.757,37.353 L 13.757,37.353 L 13.757,37.353 "/>
<path stroke="none" fill="#000000" stroke-width="0.001" d="M 13.671,37.422 L 13.671,37.422 L 13.671,37.418 L 13.671,37.415 L 13.671,37.411 L 13.672,37.407 L 13.672,37.404 L 13.673,37.400 L 13.673,37.397 L 13.674,37.393 L 13.675,37.390 L 13.676,37.387 L 13.676,37.384 L 13.678,37.381 L 13.679,37.378 L 13.680,37.375 L 13.682,37.373 L 13.683,37.370 L 13.686,37.365 L 13.689,37.360 L 13.693,37.356 L 13.696,37.353 L 13.700,37.349 L 13.704,37.346 L 13.708,37.343 L 13.712,37.340 L 13.716,37.338 L 13.720,37.336 L 13.723,37.334 L 13.727,37.332 L 13.731,37.331 L 13.734,37.330 L 13.737,37.329 L 13.740,37.328 L 13.745,37.327 L 13.750,37.326 L 13.752,37.325 L 13.754,37.325 L 13.757,37.353 L 13.757,37.353 L 13.755,37.354 L 13.752,37.355 L 13.748,37.356 L 13.746,37.356 L 13.744,37.357 L 13.741,37.358 L 13.738,37.359 L 13.736,37.360 L 13.733,37.361 L 13.730,37.363 L 13.727,37.364 L 13.725,37.366 L 13.722,37.368 L 13.719,37.371 L 13.717,37.373 L 13.714,37.375 L 13.712,37.378 L 13.710,37.381 L 13.708,37.385 L 13.707,37.386 L 13.706,37.388 L 13.705,37.390 L 13.704,37.392 L 13.703,37.393 L 13.703,37.395 L 13.702,37.398 L 13.702,37.400 L 13.701,37.402 L 13.700,37.405 L 13.700,37.407 L 13.700,37.410 L 13.700,37.413 L 13.699,37.416 L 13.699,37.419 L 13.699,37.422 L 13.699,37.422 L 13.699,37.422 L 13.699,37.422 L 13.699,37.422 L 13.671,37.422 "/>
<path stroke="none" fill="#7B7C5C" stroke-width="0.001" d="M 14.837,39.273 L 15.201,39.273 L 15.201,38.841 L 15.384,38.841 L 15.384,39.273 L 15.743,39.273 L 15.746,39.273 L 15.748,39.273 L 15.751,39.274 L 15.754,39.274 L 15.757,39.275 L 15.759,39.276 L 15.762,39.276 L 15.764,39.277 L 15.767,39.279 L 15.770,39.280 L 15.772,39.281 L 15.774,39.283 L 15.776,39.284 L 15.779,39.286 L 15.781,39.288 L 15.783,39.290 L 15.784,39.292 L 15.786,39.294 L 15.788,39.296 L 15.790,39.298 L 15.791,39.301 L 15.793,39.303 L 15.794,39.305 L 15.795,39.308 L 15.796,39.310 L 15.797,39.313 L 15.797,39.316 L 15.798,39.319 L 15.799,39.321 L 15.799,39.324 L 15.799,39.327 L 15.800,39.330 L 15.800,39.397 L 15.799,39.400 L 15.799,39.403 L 15.799,39.405 L 15.798,39.409 L 15.797,39.411 L 15.797,39.414 L 15.796,39.417 L 15.795,39.419 L 15.794,39.422 L 15.793,39.424 L 15.791,39.427 L 15.790,39.429 L 15.788,39.431 L 15.786,39.433 L 15.784,39.435 L 15.783,39.437 L 15.781,39.439 L 15.779,39.441 L 15.776,39.443 L 15.774,39.444 L 15.772,39.446 L 15.770,39.448 L 15.767,39.449 L 15.764,39.450 L 15.762,39.451 L 15.759,39.452 L 15.757,39.452 L 15.754,39.453 L 15.751,39.453 L 15.748,39.454 L 15.746,39.454 L 15.743,39.454 L 14.837,39.454 L 14.834,39.454 L 14.831,39.454 L 14.828,39.453 L 14.825,39.453 L 14.823,39.452 L 14.820,39.452 L 14.818,39.451 L 14.814,39.450 L 14.812,39.449 L 14.810,39.448 L 14.807,39.446 L 14.805,39.444 L 14.803,39.443 L 14.801,39.441 L 14.799,39.439 L 14.797,39.437 L 14.795,39.435 L 14.793,39.433 L 14.791,39.431 L 14.790,39.429 L 14.788,39.427 L 14.787,39.424 L 14.785,39.422 L 14.784,39.419 L 14.783,39.417 L 14.783,39.414 L 14.782,39.411 L 14.781,39.409 L 14.780,39.405 L 14.780,39.403 L 14.780,39.400 L 14.780,39.397 L 14.780,39.330 L 14.780,39.327 L 14.780,39.324 L 14.780,39.321 L 14.781,39.319 L 14.782,39.316 L 14.783,39.313 L 14.783,39.310 L 14.784,39.308 L 14.785,39.305 L 14.787,39.303 L 14.788,39.301 L 14.790,39.298 L 14.791,39.296 L 14.793,39.294 L 14.795,39.292 L 14.797,39.290 L 14.799,39.288 L 14.801,39.286 L 14.803,39.284 L 14.805,39.283 L 14.807,39.281 L 14.810,39.280 L 14.812,39.279 L 14.814,39.277 L 14.818,39.276 L 14.820,39.276 L 14.823,39.275 L 14.825,39.274 L 14.828,39.274 L 14.831,39.273 L 14.834,39.273 L 14.837,39.273 "/>
<path stroke="none" fill="#000000" stroke-width="0.001" d="M 15.215,39.273 L 15.201,39.288 L 14.837,39.288 L 14.837,39.259 L 15.201,39.259 L 15.215,39.273 L 15.215,39.273 L 15.215,39.288 L 15.201,39.288 L 15.215,39.273 "/>
<path stroke="none" fill="#000000" stroke-width="0.001" d="M 15.201,38.827 L 15.215,38.841 L 15.215,39.273 L 15.187,39.273 L 15.187,38.841 L 15.201,38.827 L 15.187,38.841 L 15.187,38.827 L 15.201,38.827 "/>
<path stroke="none" fill="#000000" stroke-width="0.001" d="M 15.398,38.841 L 15.384,38.855 L 15.201,38.855 L 15.201,38.827 L 15.384,38.827 L 15.398,38.841 L 15.384,38.827 L 15.398,38.827 L 15.398,38.841 "/>
<path stroke="none" fill="#000000" stroke-width="0.001" d="M 15.384,39.288 L 15.370,39.273 L 15.370,38.841 L 15.398,38.841 L 15.398,39.273 L 15.384,39.288 L 15.384,39.288 L 15.370,39.288 L 15.370,39.273 L 15.384,39.288 "/>
<path stroke="none" fill="#000000" stroke-width="0.001" d="M 15.743,39.259 L 15.743,39.288 L 15.384,39.288 L 15.384,39.259 L 15.743,39.259 L 15.743,39.259 L 15.743,39.288 L 15.743,39.288 L 15.743,39.288 L 15.743,39.259 "/>
<path stroke="none" fill="#000000" stroke-width="0.001" d="M 15.785,39.330 L 15.785,39.330 L 15.785,39.328 L 15.785,39.326 L 15.784,39.324 L 15.784,39.321 L 15.783,39.319 L 15.783,39.317 L 15.783,39.316 L 15.782,39.314 L 15.781,39.312 L 15.780,39.310 L 15.779,39.308 L 15.778,39.306 L 15.777,39.305 L 15.776,39.303 L 15.774,39.301 L 15.773,39.300 L 15.771,39.298 L 15.770,39.297 L 15.768,39.296 L 15.766,39.295 L 15.764,39.294 L 15.763,39.292 L 15.761,39.292 L 15.759,39.291 L 15.757,39.290 L 15.755,39.289 L 15.753,39.289 L 15.751,39.288 L 15.749,39.288 L 15.747,39.288 L 15.745,39.288 L 15.743,39.288 L 15.743,39.259 L 15.746,39.259 L 15.749,39.259 L 15.753,39.259 L 15.757,39.260 L 15.760,39.261 L 15.763,39.262 L 15.767,39.263 L 15.770,39.264 L 15.773,39.266 L 15.776,39.267 L 15.780,39.269 L 15.783,39.271 L 15.785,39.273 L 15.788,39.275 L 15.791,39.277 L 15.793,39.280 L 15.795,39.282 L 15.797,39.285 L 15.800,39.288 L 15.801,39.290 L 15.804,39.293 L 15.805,39.296 L 15.807,39.299 L 15.808,39.302 L 15.810,39.305 L 15.810,39.309 L 15.811,39.313 L 15.812,39.316 L 15.813,39.319 L 15.814,39.323 L 15.814,39.327 L 15.814,39.330 L 15.814,39.330 L 15.785,39.330 L 15.785,39.330 L 15.785,39.330 "/>
<path stroke="none" fill="#000000" stroke-width="0.001" d="M 15.814,39.397 L 15.785,39.397 L 15.785,39.330 L 15.814,39.330 L 15.814,39.397 L 15.814,39.397 L 15.785,39.397 L 15.785,39.397 L 15.785,39.397 L 15.814,39.397 "/>
<path stroke="none" fill="#000000" stroke-width="0.001" d="M 15.743,39.440 L 15.743,39.440 L 15.745,39.440 L 15.747,39.440 L 15.749,39.439 L 15.751,39.439 L 15.753,39.439 L 15.755,39.438 L 15.757,39.437 L 15.759,39.436 L 15.761,39.436 L 15.763,39.435 L 15.764,39.434 L 15.766,39.432 L 15.768,39.431 L 15.770,39.430 L 15.771,39.429 L 15.773,39.427 L 15.774,39.426 L 15.776,39.424 L 15.777,39.423 L 15.778,39.421 L 15.779,39.419 L 15.780,39.417 L 15.781,39.416 L 15.782,39.414 L 15.783,39.411 L 15.783,39.410 L 15.783,39.408 L 15.784,39.405 L 15.784,39.403 L 15.785,39.401 L 15.785,39.399 L 15.785,39.397 L 15.814,39.397 L 15.814,39.401 L 15.814,39.404 L 15.813,39.408 L 15.812,39.411 L 15.811,39.415 L 15.810,39.418 L 15.810,39.421 L 15.808,39.425 L 15.807,39.428 L 15.805,39.431 L 15.804,39.434 L 15.801,39.437 L 15.800,39.440 L 15.797,39.443 L 15.795,39.445 L 15.793,39.448 L 15.791,39.450 L 15.788,39.452 L 15.785,39.454 L 15.783,39.456 L 15.780,39.458 L 15.776,39.460 L 15.773,39.461 L 15.770,39.463 L 15.767,39.464 L 15.763,39.465 L 15.760,39.466 L 15.757,39.467 L 15.753,39.468 L 15.749,39.468 L 15.746,39.468 L 15.743,39.469 L 15.743,39.469 L 15.743,39.440 L 15.743,39.440 L 15.743,39.440 "/>
<path stroke="none" fill="#000000" stroke-width="0.001" d="M 14.837,39.469 L 14.837,39.440 L 15.743,39.440 L 15.743,39.469 L 14.837,39.469 L 14.837,39.469 L 14.837,39.440 L 14.837,39.440 L 14.837,39.440 L 14.837,39.469 "/>
<path stroke="none" fill="#000000" stroke-width="0.001" d="M 14.794,39.397 L 14.794,39.397 L 14.794,39.399 L 14.794,39.401 L 14.795,39.403 L 14.795,39.405 L 14.795,39.408 L 14.796,39.410 L 14.797,39.411 L 14.797,39.414 L 14.798,39.416 L 14.800,39.417 L 14.801,39.419 L 14.801,39.421 L 14.803,39.423 L 14.804,39.424 L 14.805,39.426 L 14.806,39.427 L 14.808,39.429 L 14.810,39.430 L 14.811,39.431 L 14.813,39.432 L 14.814,39.434 L 14.817,39.435 L 14.818,39.436 L 14.820,39.436 L 14.822,39.437 L 14.824,39.438 L 14.826,39.439 L 14.828,39.439 L 14.830,39.439 L 14.832,39.440 L 14.835,39.440 L 14.837,39.440 L 14.837,39.469 L 14.834,39.468 L 14.830,39.468 L 14.826,39.468 L 14.822,39.467 L 14.819,39.466 L 14.815,39.465 L 14.812,39.464 L 14.809,39.463 L 14.806,39.461 L 14.803,39.460 L 14.800,39.458 L 14.797,39.456 L 14.794,39.454 L 14.791,39.452 L 14.789,39.450 L 14.787,39.448 L 14.784,39.445 L 14.782,39.443 L 14.780,39.440 L 14.777,39.437 L 14.776,39.434 L 14.774,39.431 L 14.773,39.428 L 14.771,39.425 L 14.770,39.421 L 14.769,39.418 L 14.768,39.415 L 14.767,39.411 L 14.767,39.408 L 14.766,39.404 L 14.766,39.401 L 14.766,39.397 L 14.766,39.397 L 14.794,39.397 L 14.794,39.397 L 14.794,39.397 "/>
<path stroke="none" fill="#000000" stroke-width="0.001" d="M 14.766,39.330 L 14.794,39.330 L 14.794,39.397 L 14.766,39.397 L 14.766,39.330 L 14.766,39.330 L 14.794,39.330 L 14.794,39.330 L 14.794,39.330 L 14.766,39.330 "/>
<path stroke="none" fill="#000000" stroke-width="0.001" d="M 14.837,39.288 L 14.837,39.288 L 14.835,39.288 L 14.832,39.288 L 14.830,39.288 L 14.828,39.288 L 14.827,39.289 L 14.824,39.289 L 14.822,39.290 L 14.820,39.291 L 14.818,39.292 L 14.817,39.292 L 14.814,39.294 L 14.813,39.295 L 14.811,39.296 L 14.810,39.297 L 14.808,39.298 L 14.806,39.300 L 14.805,39.301 L 14.804,39.303 L 14.803,39.305 L 14.801,39.306 L 14.801,39.308 L 14.800,39.310 L 14.798,39.312 L 14.797,39.314 L 14.797,39.315 L 14.796,39.317 L 14.795,39.319 L 14.795,39.321 L 14.795,39.324 L 14.794,39.326 L 14.794,39.328 L 14.794,39.330 L 14.766,39.330 L 14.766,39.327 L 14.766,39.323 L 14.767,39.319 L 14.767,39.316 L 14.768,39.313 L 14.769,39.309 L 14.770,39.305 L 14.771,39.302 L 14.773,39.299 L 14.774,39.296 L 14.776,39.293 L 14.777,39.290 L 14.780,39.288 L 14.782,39.285 L 14.784,39.282 L 14.787,39.280 L 14.789,39.277 L 14.791,39.275 L 14.794,39.273 L 14.797,39.271 L 14.800,39.269 L 14.803,39.267 L 14.806,39.266 L 14.809,39.264 L 14.812,39.263 L 14.815,39.262 L 14.819,39.261 L 14.822,39.260 L 14.826,39.259 L 14.830,39.259 L 14.834,39.259 L 14.837,39.259 L 14.837,39.259 L 14.837,39.288 L 14.837,39.288 L 14.837,39.288 "/>
<path stroke="none" fill="#7B7C5C" stroke-width="0.001" d="M 14.821,38.639 L 15.572,38.639 L 15.572,37.570 L 15.572,37.566 L 15.572,37.563 L 15.572,37.560 L 15.573,37.557 L 15.573,37.554 L 15.574,37.551 L 15.576,37.548 L 15.576,37.545 L 15.578,37.542 L 15.579,37.540 L 15.581,37.537 L 15.583,37.534 L 15.584,37.532 L 15.586,37.530 L 15.588,37.527 L 15.590,37.525 L 15.592,37.523 L 15.594,37.521 L 15.597,37.519 L 15.599,37.517 L 15.602,37.516 L 15.604,37.514 L 15.607,37.513 L 15.610,37.511 L 15.613,37.510 L 15.616,37.509 L 15.619,37.508 L 15.621,37.508 L 15.625,37.507 L 15.628,37.507 L 15.631,37.507 L 15.634,37.506 L 15.708,37.506 L 15.711,37.507 L 15.715,37.507 L 15.718,37.507 L 15.720,37.508 L 15.724,37.508 L 15.727,37.509 L 15.729,37.510 L 15.732,37.511 L 15.735,37.513 L 15.738,37.514 L 15.740,37.516 L 15.743,37.517 L 15.746,37.519 L 15.748,37.521 L 15.750,37.523 L 15.752,37.525 L 15.754,37.527 L 15.756,37.530 L 15.759,37.532 L 15.760,37.534 L 15.762,37.537 L 15.763,37.540 L 15.764,37.542 L 15.766,37.545 L 15.767,37.548 L 15.768,37.551 L 15.769,37.554 L 15.770,37.557 L 15.770,37.560 L 15.770,37.563 L 15.770,37.566 L 15.770,37.570 L 15.770,38.776 L 15.770,38.779 L 15.770,38.782 L 15.770,38.786 L 15.770,38.788 L 15.769,38.792 L 15.768,38.795 L 15.767,38.798 L 15.766,38.800 L 15.764,38.803 L 15.763,38.806 L 15.762,38.808 L 15.760,38.811 L 15.759,38.813 L 15.756,38.816 L 15.754,38.818 L 15.752,38.820 L 15.750,38.822 L 15.748,38.824 L 15.746,38.826 L 15.743,38.828 L 15.740,38.830 L 15.738,38.831 L 15.735,38.833 L 15.732,38.834 L 15.729,38.835 L 15.727,38.836 L 15.724,38.837 L 15.720,38.837 L 15.718,38.838 L 15.715,38.839 L 15.711,38.839 L 15.708,38.839 L 15.634,38.839 L 14.821,38.839 L 14.818,38.839 L 14.814,38.839 L 14.811,38.838 L 14.808,38.837 L 14.805,38.837 L 14.802,38.836 L 14.800,38.835 L 14.796,38.834 L 14.794,38.833 L 14.791,38.831 L 14.788,38.830 L 14.786,38.828 L 14.783,38.826 L 14.781,38.824 L 14.779,38.822 L 14.776,38.820 L 14.774,38.818 L 14.773,38.816 L 14.771,38.813 L 14.770,38.811 L 14.767,38.808 L 14.766,38.806 L 14.764,38.803 L 14.763,38.800 L 14.763,38.798 L 14.761,38.795 L 14.760,38.792 L 14.760,38.788 L 14.759,38.786 L 14.759,38.782 L 14.758,38.779 L 14.758,38.776 L 14.758,38.702 L 14.758,38.699 L 14.759,38.696 L 14.759,38.693 L 14.760,38.689 L 14.760,38.686 L 14.761,38.684 L 14.763,38.680 L 14.763,38.678 L 14.764,38.675 L 14.766,38.672 L 14.767,38.670 L 14.770,38.667 L 14.771,38.665 L 14.773,38.662 L 14.774,38.660 L 14.776,38.657 L 14.779,38.656 L 14.781,38.653 L 14.783,38.652 L 14.786,38.650 L 14.788,38.649 L 14.791,38.647 L 14.794,38.645 L 14.796,38.644 L 14.800,38.643 L 14.802,38.642 L 14.805,38.641 L 14.808,38.641 L 14.811,38.640 L 14.814,38.640 L 14.818,38.640 L 14.821,38.639 "/>
<path stroke="none" fill="#000000" stroke-width="0.001" d="M 15.586,38.639 L 15.572,38.653 L 14.821,38.653 L 14.821,38.625 L 15.572,38.625 L 15.586,38.639 L 15.586,38.639 L 15.586,38.653 L 15.572,38.653 L 15.586,38.639 "/>
<path stroke="none" fill="#000000" stroke-width="0.001" d="M 15.557,37.570 L 15.586,37.570 L 15.586,38.639 L 15.557,38.639 L 15.557,37.570 L 15.557,37.570 L 15.586,37.570 L 15.586,37.570 L 15.586,37.570 L 15.557,37.570 "/>
<path stroke="none" fill="#000000" stroke-width="0.001" d="M 15.634,37.521 L 15.634,37.521 L 15.632,37.521 L 15.630,37.521 L 15.627,37.522 L 15.625,37.522 L 15.622,37.522 L 15.620,37.523 L 15.618,37.524 L 15.615,37.525 L 15.614,37.526 L 15.611,37.527 L 15.609,37.528 L 15.607,37.529 L 15.606,37.531 L 15.604,37.532 L 15.602,37.533 L 15.600,37.535 L 15.599,37.537 L 15.597,37.539 L 15.596,37.540 L 15.594,37.542 L 15.593,37.544 L 15.592,37.546 L 15.591,37.548 L 15.590,37.551 L 15.589,37.553 L 15.588,37.555 L 15.587,37.557 L 15.587,37.560 L 15.587,37.562 L 15.586,37.565 L 15.586,37.567 L 15.586,37.570 L 15.557,37.570 L 15.557,37.566 L 15.557,37.561 L 15.558,37.558 L 15.559,37.554 L 15.560,37.550 L 15.561,37.546 L 15.562,37.543 L 15.563,37.540 L 15.565,37.536 L 15.566,37.532 L 15.569,37.530 L 15.570,37.526 L 15.573,37.523 L 15.575,37.520 L 15.577,37.518 L 15.580,37.515 L 15.583,37.512 L 15.585,37.510 L 15.588,37.508 L 15.591,37.506 L 15.594,37.503 L 15.598,37.502 L 15.601,37.500 L 15.604,37.498 L 15.608,37.497 L 15.611,37.495 L 15.615,37.495 L 15.619,37.494 L 15.623,37.493 L 15.627,37.493 L 15.631,37.492 L 15.634,37.492 L 15.634,37.492 L 15.634,37.521 L 15.634,37.521 L 15.634,37.521 "/>
<path stroke="none" fill="#000000" stroke-width="0.001" d="M 15.708,37.492 L 15.708,37.521 L 15.634,37.521 L 15.634,37.492 L 15.708,37.492 L 15.708,37.492 L 15.708,37.521 L 15.708,37.521 L 15.708,37.521 L 15.708,37.492 "/>
<path stroke="none" fill="#000000" stroke-width="0.001" d="M 15.756,37.570 L 15.756,37.570 L 15.756,37.567 L 15.756,37.565 L 15.756,37.562 L 15.756,37.560 L 15.755,37.557 L 15.754,37.555 L 15.753,37.553 L 15.753,37.551 L 15.752,37.548 L 15.750,37.546 L 15.749,37.544 L 15.748,37.542 L 15.747,37.540 L 15.746,37.539 L 15.744,37.537 L 15.743,37.535 L 15.740,37.533 L 15.739,37.532 L 15.737,37.531 L 15.735,37.529 L 15.733,37.528 L 15.731,37.527 L 15.729,37.526 L 15.727,37.525 L 15.725,37.524 L 15.722,37.523 L 15.720,37.522 L 15.718,37.522 L 15.715,37.522 L 15.713,37.521 L 15.710,37.521 L 15.708,37.521 L 15.708,37.492 L 15.712,37.492 L 15.715,37.493 L 15.720,37.493 L 15.723,37.494 L 15.728,37.495 L 15.731,37.495 L 15.734,37.497 L 15.738,37.498 L 15.741,37.500 L 15.745,37.502 L 15.748,37.503 L 15.751,37.506 L 15.754,37.508 L 15.757,37.510 L 15.760,37.512 L 15.763,37.515 L 15.765,37.518 L 15.767,37.520 L 15.770,37.523 L 15.772,37.526 L 15.774,37.530 L 15.776,37.532 L 15.778,37.536 L 15.779,37.540 L 15.780,37.543 L 15.782,37.546 L 15.783,37.550 L 15.783,37.554 L 15.784,37.558 L 15.785,37.561 L 15.785,37.566 L 15.785,37.570 L 15.785,37.570 L 15.756,37.570 L 15.756,37.570 L 15.756,37.570 "/>
<path stroke="none" fill="#000000" stroke-width="0.001" d="M 15.785,38.776 L 15.756,38.776 L 15.756,37.570 L 15.785,37.570 L 15.785,38.776 L 15.785,38.776 L 15.756,38.776 L 15.756,38.776 L 15.756,38.776 L 15.785,38.776 "/>
<path stroke="none" fill="#000000" stroke-width="0.001" d="M 15.708,38.824 L 15.708,38.824 L 15.711,38.824 L 15.713,38.824 L 15.715,38.824 L 15.718,38.824 L 15.720,38.823 L 15.722,38.822 L 15.725,38.821 L 15.727,38.821 L 15.729,38.820 L 15.731,38.819 L 15.733,38.817 L 15.735,38.816 L 15.737,38.815 L 15.739,38.813 L 15.740,38.812 L 15.743,38.810 L 15.744,38.808 L 15.746,38.807 L 15.747,38.805 L 15.748,38.803 L 15.749,38.801 L 15.750,38.799 L 15.752,38.797 L 15.753,38.795 L 15.753,38.792 L 15.754,38.791 L 15.755,38.788 L 15.756,38.786 L 15.756,38.784 L 15.756,38.781 L 15.756,38.778 L 15.756,38.776 L 15.785,38.776 L 15.785,38.780 L 15.785,38.784 L 15.784,38.788 L 15.783,38.791 L 15.783,38.795 L 15.782,38.799 L 15.780,38.802 L 15.779,38.806 L 15.778,38.809 L 15.776,38.813 L 15.774,38.816 L 15.772,38.819 L 15.770,38.822 L 15.767,38.825 L 15.765,38.828 L 15.763,38.830 L 15.760,38.833 L 15.757,38.836 L 15.754,38.838 L 15.751,38.840 L 15.748,38.842 L 15.745,38.844 L 15.741,38.846 L 15.738,38.847 L 15.735,38.849 L 15.731,38.850 L 15.727,38.851 L 15.723,38.852 L 15.720,38.853 L 15.715,38.853 L 15.712,38.853 L 15.708,38.853 L 15.708,38.853 L 15.708,38.824 L 15.708,38.824 L 15.708,38.824 "/>
<path stroke="none" fill="#000000" stroke-width="0.001" d="M 15.634,38.853 L 15.634,38.824 L 15.708,38.824 L 15.708,38.853 L 15.634,38.853 L 15.634,38.853 L 15.634,38.824 L 15.634,38.824 L 15.634,38.824 L 15.634,38.853 "/>
<path stroke="none" fill="#000000" stroke-width="0.001" d="M 14.821,38.853 L 14.821,38.824 L 15.634,38.824 L 15.634,38.853 L 14.821,38.853 L 14.821,38.853 L 14.821,38.824 L 14.821,38.824 L 14.821,38.824 L 14.821,38.853 "/>
<path stroke="none" fill="#000000" stroke-width="0.001" d="M 14.773,38.776 L 14.773,38.776 L 14.773,38.778 L 14.773,38.781 L 14.773,38.784 L 14.774,38.786 L 14.774,38.788 L 14.774,38.791 L 14.775,38.792 L 14.776,38.795 L 14.777,38.797 L 14.778,38.799 L 14.780,38.801 L 14.781,38.803 L 14.782,38.805 L 14.784,38.807 L 14.785,38.808 L 14.787,38.810 L 14.788,38.812 L 14.790,38.813 L 14.792,38.815 L 14.794,38.816 L 14.796,38.817 L 14.798,38.819 L 14.800,38.820 L 14.802,38.821 L 14.804,38.821 L 14.806,38.822 L 14.809,38.823 L 14.811,38.824 L 14.814,38.824 L 14.816,38.824 L 14.818,38.824 L 14.821,38.824 L 14.821,38.853 L 14.817,38.853 L 14.813,38.853 L 14.809,38.853 L 14.805,38.852 L 14.801,38.851 L 14.798,38.850 L 14.794,38.849 L 14.791,38.847 L 14.787,38.846 L 14.784,38.844 L 14.781,38.842 L 14.778,38.840 L 14.774,38.838 L 14.772,38.836 L 14.770,38.833 L 14.767,38.830 L 14.764,38.828 L 14.761,38.825 L 14.760,38.822 L 14.757,38.819 L 14.755,38.816 L 14.753,38.813 L 14.752,38.809 L 14.750,38.806 L 14.749,38.802 L 14.748,38.799 L 14.747,38.795 L 14.746,38.791 L 14.745,38.788 L 14.744,38.784 L 14.744,38.780 L 14.744,38.776 L 14.744,38.776 L 14.773,38.776 L 14.773,38.776 L 14.773,38.776 "/>
<path stroke="none" fill="#000000" stroke-width="0.001" d="M 14.744,38.702 L 14.773,38.702 L 14.773,38.776 L 14.744,38.776 L 14.744,38.702 L 14.744,38.702 L 14.773,38.702 L 14.773,38.702 L 14.773,38.702 L 14.744,38.702 "/>
<path stroke="none" fill="#000000" stroke-width="0.001" d="M 14.821,38.653 L 14.821,38.653 L 14.818,38.653 L 14.816,38.654 L 14.814,38.654 L 14.811,38.655 L 14.809,38.655 L 14.806,38.656 L 14.804,38.656 L 14.802,38.657 L 14.800,38.658 L 14.798,38.660 L 14.796,38.661 L 14.794,38.662 L 14.792,38.663 L 14.790,38.665 L 14.788,38.666 L 14.787,38.668 L 14.785,38.669 L 14.784,38.671 L 14.782,38.673 L 14.781,38.675 L 14.780,38.677 L 14.778,38.679 L 14.777,38.681 L 14.776,38.683 L 14.775,38.685 L 14.774,38.688 L 14.774,38.690 L 14.774,38.692 L 14.773,38.695 L 14.773,38.697 L 14.773,38.699 L 14.773,38.702 L 14.744,38.702 L 14.744,38.698 L 14.744,38.694 L 14.745,38.691 L 14.746,38.686 L 14.747,38.683 L 14.748,38.679 L 14.749,38.676 L 14.750,38.672 L 14.752,38.669 L 14.753,38.665 L 14.755,38.662 L 14.757,38.659 L 14.760,38.656 L 14.761,38.653 L 14.764,38.650 L 14.767,38.647 L 14.770,38.645 L 14.772,38.642 L 14.774,38.640 L 14.778,38.638 L 14.781,38.636 L 14.784,38.634 L 14.787,38.633 L 14.791,38.631 L 14.794,38.629 L 14.798,38.628 L 14.801,38.627 L 14.805,38.627 L 14.809,38.626 L 14.813,38.625 L 14.817,38.625 L 14.821,38.625 L 14.821,38.625 L 14.821,38.653 L 14.821,38.653 L 14.821,38.653 "/>
<path stroke="none" fill="#B7B89E" stroke-width="0.001" d="M 14.997,37.421 L 14.421,37.840 L 14.417,37.844 L 14.412,37.849 L 14.408,37.853 L 14.405,37.858 L 14.401,37.863 L 14.398,37.868 L 14.395,37.873 L 14.392,37.879 L 14.390,37.885 L 14.387,37.891 L 14.385,37.896 L 14.384,37.902 L 14.383,37.909 L 14.382,37.915 L 14.382,37.918 L 14.381,37.921 L 14.381,37.925 L 14.381,37.928 L 14.381,37.934 L 14.382,37.940 L 14.382,37.946 L 14.383,37.951 L 14.385,37.957 L 14.386,37.962 L 14.388,37.968 L 14.390,37.973 L 14.393,37.978 L 14.395,37.983 L 14.398,37.988 L 14.401,37.993 L 14.404,37.997 L 14.408,38.002 L 14.411,38.006 L 14.415,38.010 L 14.419,38.014 L 14.424,38.018 L 14.428,38.021 L 14.432,38.024 L 14.437,38.027 L 14.441,38.030 L 14.446,38.033 L 14.452,38.035 L 14.457,38.037 L 14.462,38.039 L 14.468,38.040 L 14.473,38.041 L 14.479,38.043 L 14.485,38.043 L 14.491,38.044 L 14.497,38.044 L 14.500,38.044 L 14.504,38.044 L 14.509,38.043 L 14.513,38.043 L 14.516,38.042 L 14.521,38.041 L 14.525,38.040 L 14.529,38.039 L 14.534,38.038 L 14.538,38.037 L 14.542,38.035 L 14.546,38.034 L 14.550,38.032 L 14.555,38.030 L 14.558,38.028 L 14.563,38.026 L 15.045,37.727 L 15.043,38.269 L 14.757,38.269 L 14.758,38.649 L 15.571,38.648 L 15.571,37.466 L 15.571,37.466 L 15.570,37.463 L 15.567,37.458 L 15.564,37.452 L 15.562,37.449 L 15.559,37.446 L 15.556,37.442 L 15.553,37.437 L 15.549,37.433 L 15.545,37.429 L 15.541,37.425 L 15.536,37.421 L 15.531,37.417 L 15.525,37.413 L 15.519,37.408 L 15.512,37.404 L 15.505,37.400 L 15.497,37.397 L 15.489,37.393 L 15.480,37.390 L 15.471,37.386 L 15.461,37.384 L 15.451,37.381 L 15.440,37.379 L 15.428,37.377 L 15.415,37.376 L 15.403,37.376 L 15.389,37.375 L 15.111,37.375 L 15.109,37.376 L 15.102,37.376 L 15.097,37.377 L 15.091,37.378 L 15.085,37.380 L 15.077,37.382 L 15.069,37.385 L 15.060,37.388 L 15.055,37.389 L 15.051,37.391 L 15.046,37.393 L 15.041,37.396 L 15.035,37.398 L 15.031,37.401 L 15.025,37.404 L 15.020,37.407 L 15.014,37.410 L 15.009,37.414 L 15.003,37.417 L 14.997,37.421 "/>
<path stroke="none" fill="#000000" stroke-width="0.001" d="M 14.412,37.829 L 14.413,37.828 L 14.989,37.409 L 15.005,37.433 L 14.429,37.852 L 14.412,37.829 L 14.412,37.829 L 14.412,37.829 L 14.413,37.828 L 14.412,37.829 "/>
<path stroke="none" fill="#000000" stroke-width="0.001" d="M 14.367,37.928 L 14.367,37.928 L 14.367,37.924 L 14.367,37.921 L 14.367,37.917 L 14.367,37.913 L 14.369,37.906 L 14.370,37.899 L 14.371,37.892 L 14.374,37.886 L 14.376,37.879 L 14.379,37.873 L 14.382,37.867 L 14.385,37.861 L 14.389,37.855 L 14.393,37.849 L 14.398,37.844 L 14.402,37.838 L 14.407,37.834 L 14.412,37.829 L 14.430,37.851 L 14.427,37.854 L 14.423,37.859 L 14.419,37.862 L 14.416,37.867 L 14.413,37.871 L 14.410,37.876 L 14.408,37.880 L 14.405,37.885 L 14.403,37.890 L 14.401,37.895 L 14.399,37.900 L 14.398,37.905 L 14.397,37.911 L 14.396,37.917 L 14.396,37.920 L 14.396,37.922 L 14.396,37.925 L 14.396,37.928 L 14.396,37.928 L 14.367,37.928 L 14.367,37.928 L 14.367,37.928 "/>
<path stroke="none" fill="#000000" stroke-width="0.001" d="M 14.497,38.059 L 14.497,38.059 L 14.490,38.058 L 14.483,38.058 L 14.477,38.057 L 14.470,38.056 L 14.464,38.054 L 14.458,38.052 L 14.452,38.050 L 14.446,38.048 L 14.441,38.046 L 14.435,38.043 L 14.429,38.039 L 14.424,38.036 L 14.419,38.033 L 14.414,38.029 L 14.409,38.024 L 14.405,38.020 L 14.401,38.016 L 14.397,38.011 L 14.393,38.006 L 14.389,38.001 L 14.386,37.996 L 14.382,37.990 L 14.380,37.985 L 14.377,37.979 L 14.375,37.973 L 14.373,37.967 L 14.371,37.961 L 14.370,37.954 L 14.368,37.947 L 14.367,37.941 L 14.367,37.935 L 14.367,37.928 L 14.396,37.928 L 14.396,37.933 L 14.396,37.938 L 14.397,37.943 L 14.398,37.948 L 14.399,37.953 L 14.400,37.958 L 14.402,37.963 L 14.403,37.967 L 14.405,37.972 L 14.408,37.976 L 14.410,37.980 L 14.413,37.985 L 14.415,37.989 L 14.419,37.992 L 14.422,37.996 L 14.425,38.000 L 14.428,38.003 L 14.432,38.006 L 14.436,38.009 L 14.441,38.012 L 14.444,38.015 L 14.448,38.017 L 14.453,38.020 L 14.458,38.022 L 14.462,38.023 L 14.466,38.025 L 14.471,38.026 L 14.477,38.028 L 14.481,38.028 L 14.486,38.029 L 14.492,38.030 L 14.497,38.030 L 14.497,38.030 L 14.497,38.059 L 14.497,38.059 L 14.497,38.059 "/>
<path stroke="none" fill="#000000" stroke-width="0.001" d="M 14.570,38.038 L 14.570,38.038 L 14.565,38.041 L 14.560,38.043 L 14.556,38.045 L 14.551,38.047 L 14.547,38.049 L 14.542,38.050 L 14.538,38.051 L 14.533,38.053 L 14.528,38.054 L 14.524,38.055 L 14.519,38.056 L 14.514,38.057 L 14.510,38.057 L 14.506,38.058 L 14.501,38.058 L 14.497,38.059 L 14.497,38.030 L 14.500,38.030 L 14.503,38.029 L 14.507,38.029 L 14.510,38.029 L 14.514,38.028 L 14.518,38.027 L 14.522,38.026 L 14.526,38.025 L 14.529,38.024 L 14.533,38.023 L 14.537,38.022 L 14.541,38.020 L 14.544,38.018 L 14.548,38.017 L 14.552,38.015 L 14.556,38.013 L 14.555,38.014 L 14.570,38.038 L 14.570,38.038 L 14.570,38.038 L 14.570,38.038 "/>
<path stroke="none" fill="#000000" stroke-width="0.001" d="M 15.059,37.727 L 15.052,37.740 L 14.570,38.038 L 14.555,38.014 L 15.037,37.715 L 15.059,37.727 L 15.037,37.715 L 15.059,37.702 L 15.059,37.727 "/>
<path stroke="none" fill="#000000" stroke-width="0.001" d="M 15.043,38.284 L 15.029,38.269 L 15.031,37.727 L 15.059,37.727 L 15.058,38.269 L 15.043,38.284 L 15.058,38.269 L 15.058,38.284 L 15.043,38.284 "/>
<path stroke="none" fill="#000000" stroke-width="0.001" d="M 14.743,38.269 L 14.757,38.255 L 15.043,38.255 L 15.043,38.284 L 14.757,38.284 L 14.743,38.269 L 14.743,38.269 L 14.743,38.255 L 14.757,38.255 L 14.743,38.269 "/>
<path stroke="none" fill="#000000" stroke-width="0.001" d="M 14.758,38.664 L 14.744,38.649 L 14.743,38.269 L 14.771,38.269 L 14.772,38.649 L 14.758,38.664 L 14.758,38.664 L 14.744,38.664 L 14.744,38.649 L 14.758,38.664 "/>
<path stroke="none" fill="#000000" stroke-width="0.001" d="M 15.586,38.648 L 15.571,38.662 L 14.758,38.664 L 14.758,38.635 L 15.571,38.633 L 15.586,38.648 L 15.586,38.648 L 15.586,38.662 L 15.571,38.662 L 15.586,38.648 "/>
<path stroke="none" fill="#000000" stroke-width="0.001" d="M 15.585,37.461 L 15.586,37.466 L 15.586,38.648 L 15.557,38.648 L 15.557,37.466 L 15.585,37.461 L 15.585,37.461 L 15.586,37.464 L 15.586,37.466 L 15.585,37.461 "/>
<path stroke="none" fill="#000000" stroke-width="0.001" d="M 15.389,37.361 L 15.389,37.361 L 15.396,37.361 L 15.403,37.361 L 15.409,37.361 L 15.417,37.362 L 15.423,37.363 L 15.430,37.363 L 15.436,37.364 L 15.441,37.365 L 15.448,37.366 L 15.454,37.367 L 15.459,37.369 L 15.465,37.370 L 15.470,37.372 L 15.475,37.373 L 15.480,37.374 L 15.485,37.376 L 15.489,37.377 L 15.494,37.380 L 15.499,37.382 L 15.502,37.383 L 15.507,37.385 L 15.511,37.388 L 15.515,37.390 L 15.519,37.392 L 15.526,37.396 L 15.533,37.401 L 15.539,37.405 L 15.545,37.410 L 15.550,37.415 L 15.555,37.419 L 15.560,37.424 L 15.564,37.428 L 15.567,37.432 L 15.570,37.437 L 15.573,37.441 L 15.576,37.445 L 15.580,37.451 L 15.583,37.456 L 15.584,37.460 L 15.585,37.461 L 15.558,37.472 L 15.558,37.471 L 15.557,37.469 L 15.555,37.465 L 15.552,37.460 L 15.550,37.457 L 15.547,37.454 L 15.545,37.451 L 15.542,37.447 L 15.539,37.443 L 15.536,37.440 L 15.531,37.436 L 15.527,37.432 L 15.522,37.428 L 15.517,37.424 L 15.511,37.420 L 15.505,37.417 L 15.502,37.415 L 15.498,37.413 L 15.495,37.411 L 15.491,37.409 L 15.487,37.408 L 15.484,37.406 L 15.479,37.405 L 15.475,37.403 L 15.471,37.402 L 15.466,37.400 L 15.462,37.399 L 15.458,37.398 L 15.453,37.396 L 15.448,37.395 L 15.442,37.394 L 15.437,37.393 L 15.432,37.393 L 15.426,37.392 L 15.420,37.391 L 15.414,37.390 L 15.408,37.390 L 15.402,37.390 L 15.395,37.390 L 15.389,37.390 L 15.389,37.390 L 15.389,37.361 L 15.389,37.361 L 15.389,37.361 "/>
<path stroke="none" fill="#000000" stroke-width="0.001" d="M 15.110,37.361 L 15.111,37.361 L 15.389,37.361 L 15.389,37.390 L 15.111,37.390 L 15.110,37.361 L 15.110,37.361 L 15.111,37.361 L 15.111,37.361 L 15.110,37.361 "/>
<path stroke="none" fill="#000000" stroke-width="0.001" d="M 14.989,37.409 L 14.989,37.409 L 14.995,37.405 L 15.001,37.401 L 15.007,37.398 L 15.012,37.394 L 15.018,37.391 L 15.024,37.388 L 15.029,37.385 L 15.035,37.383 L 15.040,37.380 L 15.045,37.378 L 15.050,37.376 L 15.055,37.374 L 15.064,37.371 L 15.073,37.368 L 15.081,37.366 L 15.088,37.364 L 15.095,37.363 L 15.099,37.362 L 15.107,37.361 L 15.110,37.361 L 15.112,37.390 L 15.110,37.390 L 15.104,37.390 L 15.099,37.391 L 15.095,37.392 L 15.088,37.394 L 15.081,37.396 L 15.073,37.398 L 15.065,37.401 L 15.061,37.403 L 15.056,37.405 L 15.051,37.406 L 15.047,37.409 L 15.042,37.411 L 15.037,37.414 L 15.032,37.416 L 15.027,37.419 L 15.021,37.422 L 15.017,37.426 L 15.011,37.429 L 15.005,37.433 L 15.005,37.433 L 14.989,37.409 L 14.989,37.409 L 14.989,37.409 L 14.989,37.409 "/>
<path stroke="none" fill="#7B7C5C" stroke-width="0.001" d="M 13.439,39.455 L 14.759,39.455 L 14.759,38.049 L 13.439,38.049 L 13.439,39.455 "/>
<path stroke="none" fill="#000000" stroke-width="0.001" d="M 14.773,39.455 L 14.759,39.469 L 13.439,39.469 L 13.439,39.440 L 14.759,39.440 L 14.773,39.455 L 14.773,39.455 L 14.773,39.469 L 14.759,39.469 L 14.773,39.455 "/>
<path stroke="none" fill="#000000" stroke-width="0.001" d="M 14.759,38.034 L 14.773,38.049 L 14.773,39.455 L 14.744,39.455 L 14.744,38.049 L 14.759,38.034 L 14.759,38.034 L 14.773,38.034 L 14.773,38.049 L 14.759,38.034 "/>
<path stroke="none" fill="#000000" stroke-width="0.001" d="M 13.425,38.049 L 13.439,38.034 L 14.759,38.034 L 14.759,38.063 L 13.439,38.063 L 13.425,38.049 L 13.425,38.049 L 13.425,38.034 L 13.439,38.034 L 13.425,38.049 "/>
<path stroke="none" fill="#000000" stroke-width="0.001" d="M 13.439,39.469 L 13.425,39.455 L 13.425,38.049 L 13.454,38.049 L 13.454,39.455 L 13.439,39.469 L 13.439,39.469 L 13.425,39.469 L 13.425,39.455 L 13.439,39.469 "/>
<path stroke="#385D8A" fill="none" stroke-width="0.100"  d ="M 20.976,17.703 A 13.284,13.284 0 0,0 7.763,5.894 "/>
<polygon fill="#385D8A" stroke="none" stroke-width="0.100" points="21.013,18.076 20.726,17.596 20.985,17.702 21.225,17.559 "/>
<polygon fill="none" stroke="#385D8A" stroke-width="0.100"  points="21.013,18.076 20.726,17.596 20.985,17.702 21.225,17.559 "/>
<polygon fill="#FFFFFF" stroke="none" stroke-width="0.100" points="13.726,11.236 14.848,11.236 15.448,11.836 15.448,12.700 13.726,12.700 "/>
<polygon fill="none" stroke="#385D8A" stroke-width="0.100"  points="13.726,11.236 14.848,11.236 15.448,11.836 15.448,12.700 13.726,12.700 "/>
<polyline fill="none" stroke="#385D8A" stroke-width="0.050"  points="14.848,11.236 14.848,11.836 15.448,11.836 "/>
<text x="14.076" y="12.373"  fill="#385D8A" text-anchor="start" font-size="0.56" font-family="sans" font-style="normal" font-weight="400">
GET</text>
<path stroke="#385D8A" fill="none" stroke-width="0.100"  d ="M 23.108,27.274 A 26.315,26.315 0 0,0 15.517,32.447 "/>
<polygon fill="#385D8A" stroke="none" stroke-width="0.100" points="23.451,27.122 23.090,27.549 23.106,27.270 22.893,27.089 "/>
<polygon fill="none" stroke="#385D8A" stroke-width="0.100"  points="23.451,27.122 23.090,27.549 23.106,27.270 22.893,27.089 "/>
<polygon fill="#FFFFFF" stroke="none" stroke-width="0.100" points="20.681,30.459 21.804,30.459 22.404,31.059 22.404,31.923 20.681,31.923 "/>
<polygon fill="none" stroke="#385D8A" stroke-width="0.100"  points="20.681,30.459 21.804,30.459 22.404,31.059 22.404,31.923 20.681,31.923 "/>
<polyline fill="none" stroke="#385D8A" stroke-width="0.050"  points="21.804,30.459 21.804,31.059 22.404,31.059 "/>
<text x="21.031" y="31.596"  fill="#385D8A" text-anchor="start" font-size="0.56" font-family="sans" font-style="normal" font-weight="400">
GET</text>
<polygon fill="#FFFFFF" stroke="none" stroke-width="0.100" points="16.534,10.778 17.904,10.778 18.504,11.378 18.504,12.242 16.534,12.242 "/>
<polygon fill="none" stroke="#385D8A" stroke-width="0.100"  points="16.534,10.778 17.904,10.778 18.504,11.378 18.504,12.242 16.534,12.242 "/>
<polyline fill="none" stroke="#385D8A" stroke-width="0.050"  points="17.904,10.778 17.904,11.378 18.504,11.378 "/>
<text x="16.884" y="11.915"  fill="#385D8A" text-anchor="start" font-size="0.56" font-family="sans" font-style="normal" font-weight="400">
JSON</text>
<polygon fill="#FFFFFF" stroke="none" stroke-width="0.100" points="18.854,28.318 20.224,28.318 20.824,28.918 20.824,29.783 18.854,29.783 "/>
<polygon fill="none" stroke="#385D8A" stroke-width="0.100"  points="18.854,28.318 20.224,28.318 20.824,28.918 20.824,29.783 18.854,29.783 "/>
<polyline fill="none" stroke="#385D8A" stroke-width="0.050"  points="20.224,28.318 20.224,28.918 20.824,28.918 "/>
<text x="19.204" y="29.456"  fill="#385D8A" text-anchor="start" font-size="0.56" font-family="sans" font-style="normal" font-weight="400">
JSON</text>
<path stroke="#385D8A" fill="none" stroke-width="0.100"  d ="M 21.787,36.230 A 5.338,5.338 0 0,0 25.720,35.318 "/>
<polygon fill="#385D8A" stroke="none" stroke-width="0.100" points="26.018,35.093 25.800,35.608 25.733,35.336 25.476,35.227 "/>
<polygon fill="none" stroke="#385D8A" stroke-width="0.100"  points="26.018,35.093 25.800,35.608 25.733,35.336 25.476,35.227 "/>
<path stroke="#385D8A" fill="none" stroke-width="0.100"  d ="M 15.680,34.083 A 5.902,5.902 0 0,0 19.725,35.991 "/>
<polygon fill="#385D8A" stroke="none" stroke-width="0.100" points="15.436,33.800 15.940,34.043 15.666,34.097 15.545,34.349 "/>
<polygon fill="none" stroke="#385D8A" stroke-width="0.100"  points="15.436,33.800 15.940,34.043 15.666,34.097 15.545,34.349 "/>
<path stroke="#385D8A" fill="none" stroke-width="0.100"  d ="M 8.746,16.270 A 1.829,1.829 0 0,0 7.140,16.401 "/>
<polygon fill="#385D8A" stroke="none" stroke-width="0.100" points="9.071,16.434 8.521,16.338 8.770,16.211 8.817,15.936 "/>
<polygon fill="none" stroke="#385D8A" stroke-width="0.100"  points="9.071,16.434 8.521,16.338 8.770,16.211 8.817,15.936 "/>
<image x="23.561" y="16.802"  width="1.521" height="1.521" xlink:href="file:///home/obiwan/Documents/praxSemester/EIA2-Inverted-master/X01_Appendix/Landscape/Logos/Chrome%20Logo.png"/>
<image x="19.116" y="17.885"  width="3.813" height="3.813" xlink:href="file:///home/obiwan/Documents/praxSemester/EIA2-Inverted-master/X01_Appendix/Landscape/Logos/firefox_newer.jpg"/>
<image x="25.986" y="19.635"  width="1.721" height="1.885" xlink:href="file:///home/obiwan/Documents/praxSemester/EIA2-Inverted-master/X01_Appendix/Landscape/Logos/Edge.png"/>
<image x="8.566" y="15.562"  width="1.524" height="2.465" xlink:href="file:///home/obiwan/Documents/praxSemester/EIA2-Inverted-master/X01_Appendix/Landscape/Logos/Jekyll.png"/>
<image x="4.549" y="14.997"  width="3.232" height="3.302" xlink:href="file:///home/obiwan/Documents/praxSemester/EIA2-Inverted-master/X01_Appendix/Landscape/Logos/git.png"/>
<image x="5.700" y="12.308"  width="5.438" height="2.074" xlink:href="file:///home/obiwan/Documents/praxSemester/EIA2-Inverted-master/X01_Appendix/Landscape/Logos/github_logo.png"/>
<image x="4.527" y="3.610"  width="3.244" height="3.666" xlink:href="file:///home/obiwan/Documents/praxSemester/EIA2-Inverted-master/X01_Appendix/Landscape/Logos/nodejs.png"/>
<image x="21.782" y="4.799"  width="2.130" height="2.130" xlink:href="file:///home/obiwan/Documents/praxSemester/EIA2-Inverted-master/X01_Appendix/Landscape/Logos/Mongo%20Leaf.png"/>
<image x="4.348" y="25.190"  width="2.474" height="2.527" xlink:href="file:///home/obiwan/Documents/praxSemester/EIA2-Inverted-master/X01_Appendix/Landscape/Logos/git.png"/>
<image x="6.659" y="32.690"  width="2.159" height="2.159" xlink:href="file:///home/obiwan/Documents/praxSemester/EIA2-Inverted-master/X01_Appendix/Landscape/Logos/Typescript%20Logo.png"/>
<image x="4.758" y="33.357"  width="2.306" height="2.306" xlink:href="file:///home/obiwan/Documents/praxSemester/EIA2-Inverted-master/X01_Appendix/Landscape/Logos/VSC_logo.png"/>
<image x="14.087" y="32.075"  width="1.652" height="1.866" xlink:href="file:///home/obiwan/Documents/praxSemester/EIA2-Inverted-master/X01_Appendix/Landscape/Logos/nodejs.png"/>
<image x="25.308" y="33.499"  width="1.982" height="1.982" xlink:href="file:///home/obiwan/Documents/praxSemester/EIA2-Inverted-master/X01_Appendix/Landscape/Logos/Mongo%20Leaf.png"/>
<image x="23.252" y="24.697"  width="3.452" height="3.452" xlink:href="file:///home/obiwan/Documents/praxSemester/EIA2-Inverted-master/X01_Appendix/Landscape/Logos/firefox_newer.jpg"/>
<image x="18.521" y="0.430"  width="8.637" height="4.858" xlink:href="file:///home/obiwan/Documents/praxSemester/EIA2-Inverted-master/X01_Appendix/Landscape/Logos/atlas-splash.png"/>
<text x="20.527" y="22.493"  fill="#000000" text-anchor="end" font-size="0.64" font-family="sans" font-style="normal" font-weight="400">
Client</text>
<text x="25.218" y="16.305"  fill="#000000" text-anchor="end" font-size="0.64" font-family="sans" font-style="normal" font-weight="400">
Client</text>
<text x="5.000" y="24.095"  fill="#6AB06A" text-anchor="start" font-size="1.27" font-family="sans" font-style="normal" font-weight="400">
Local / Development</text>
<text x="5.000" y="22.720"  fill="#86BFCF" text-anchor="start" font-size="1.27" font-family="sans" font-style="normal" font-weight="400">
Remote / Deploy</text>
<text x="28.000" y="22.547"  fill="#000000" text-anchor="end" font-size="0.64" font-family="sans" font-style="normal" font-weight="400">
Client</text>
<text x="9.922" y="38.357"  fill="#000000" text-anchor="start" font-size="0.80" font-family="sans" font-style="normal" font-weight="400">
use</text>
<text x="1.663" y="35.521"  fill="#000000" text-anchor="start" font-size="0.80" font-family="sans" font-style="normal" font-weight="400">
edit</text>
<text x="9.292" y="30.106"  fill="#000000" text-anchor="start" font-size="0.80" font-family="sans" font-style="normal" font-weight="400">
create</text>
<text x="10.575" y="32.420"  fill="#000000" text-anchor="start" font-size="0.80" font-family="sans" font-style="normal" font-weight="400">
run</text>
<text x="15.819" y="30.350"  fill="#000000" text-anchor="start" font-size="0.80" font-family="sans" font-style="normal" font-weight="400">
run</text>
<text x="20.096" y="25.498"  fill="#000000" text-anchor="start" font-size="0.80" font-family="sans" font-style="normal" font-weight="400">
load</text>
<text x="18.341" y="33.229"  fill="#000000" text-anchor="start" font-size="0.80" font-family="sans" font-style="normal" font-weight="400">
request</text>
<text x="19.971" y="27.551"  fill="#000000" text-anchor="start" font-size="0.80" font-family="sans" font-style="normal" font-weight="400">
respond</text>
<text x="16.636" y="36.201"  fill="#000000" text-anchor="start" font-size="0.80" font-family="sans" font-style="normal" font-weight="400">
read</text>
<text x="22.526" y="36.794"  fill="#000000" text-anchor="start" font-size="0.80" font-family="sans" font-style="normal" font-weight="400">
write</text>
<text x="2.850" y="30.018"  fill="#000000" text-anchor="start" font-size="0.80" font-family="sans" font-style="normal" font-weight="400">
commit</text>
<text x="8.209" y="25.618"  fill="#000000" text-anchor="start" font-size="0.80" font-family="sans" font-style="normal" font-weight="400">
commit</text>
<text x="2.406" y="25.053"  fill="#000000" text-anchor="start" font-size="0.80" font-family="sans" font-style="normal" font-weight="400">
pull</text>
<text x="2.488" y="18.167"  fill="#000000" text-anchor="start" font-size="0.80" font-family="sans" font-style="normal" font-weight="400">
push</text>
<text x="11.102" y="19.059"  fill="#000000" text-anchor="start" font-size="0.80" font-family="sans" font-style="normal" font-weight="400">
request</text>
<text x="15.907" y="20.672"  fill="#000000" text-anchor="start" font-size="0.80" font-family="sans" font-style="normal" font-weight="400">
respond</text>
<text x="7.724" y="8.977"  fill="#000000" text-anchor="start" font-size="0.80" font-family="sans" font-style="normal" font-weight="400">
request</text>
<text x="19.336" y="13.754"  fill="#000000" text-anchor="start" font-size="0.80" font-family="sans" font-style="normal" font-weight="400">
respond</text>
<text x="4.403" y="9.096"  fill="#000000" text-anchor="start" font-size="0.80" font-family="sans" font-style="normal" font-weight="400">
pull</text>
<text x="10.010" y="4.505"  fill="#000000" text-anchor="start" font-size="0.80" font-family="sans" font-style="normal" font-weight="400">
read</text>
<text x="19.018" y="5.055"  fill="#000000" text-anchor="start" font-size="0.80" font-family="sans" font-style="normal" font-weight="400">
write</text>
<text x="28.000" y="40.482"  fill="#000000" text-anchor="end" font-size="0.42" font-family="sans" font-style="normal" font-weight="400">
(c)Prof. Dipl.-Ing. Jirka R. Dell&apos;Oro-Friedl</text>
<text x="28.000" y="40.905"  fill="#000000" text-anchor="end" font-size="0.42" font-family="sans" font-style="normal" font-weight="400">
Hochschule Furtwangen University 2019</text>
<text x="2.000" y="41.000"  fill="#A52A2A" text-anchor="start" font-size="1.41" font-family="Stencil" font-style="normal" font-weight="400">
DIA2 - LandscAPE</text>
<text x="9.388" y="34.766"  fill="#000000" text-anchor="middle" font-size="0.64" font-family="sans" font-style="normal" font-weight="400">
Type</text>
<text x="9.388" y="35.401"  fill="#000000" text-anchor="middle" font-size="0.64" font-family="sans" font-style="normal" font-weight="400">
Script</text>
<text x="4.682" y="37.367"  fill="#000000" text-anchor="middle" font-size="0.64" font-family="sans" font-style="normal" font-weight="400">
Visual Studio Code</text>
<text x="27.383" y="28.332"  fill="#000000" text-anchor="middle" font-size="0.64" font-family="sans" font-style="normal" font-weight="400">
Browser</text>
<text x="26.570" y="36.343"  fill="#000000" text-anchor="middle" font-size="0.64" font-family="sans" font-style="normal" font-weight="400">
MongoDB</text>
<text x="22.582" y="7.391"  fill="#000000" text-anchor="middle" font-size="0.64" font-family="sans" font-style="normal" font-weight="400">
MongoDB</text>
<text x="5.616" y="28.537"  fill="#000000" text-anchor="middle" font-size="0.64" font-family="sans" font-style="normal" font-weight="400">
Git</text>
<text x="6.280" y="18.736"  fill="#000000" text-anchor="middle" font-size="0.64" font-family="sans" font-style="normal" font-weight="400">
Git</text>
<text x="8.249" y="18.732"  fill="#000000" text-anchor="start" font-size="0.64" font-family="sans" font-style="normal" font-weight="400">
Pages</text>
<text x="6.091" y="7.771"  fill="#000000" text-anchor="middle" font-size="0.64" font-family="sans" font-style="normal" font-weight="400">
Node</text>
<text x="15.008" y="35.045"  fill="#000000" text-anchor="middle" font-size="0.64" font-family="sans" font-style="normal" font-weight="400">
Node</text>
</svg>